%TF.GenerationSoftware,KiCad,Pcbnew,(6.0.7)*%
%TF.CreationDate,2022-09-29T22:29:57-04:00*%
%TF.ProjectId,fuzz_v1,66757a7a-5f76-4312-9e6b-696361645f70,rev?*%
%TF.SameCoordinates,Original*%
%TF.FileFunction,Copper,L1,Top*%
%TF.FilePolarity,Positive*%
%FSLAX46Y46*%
G04 Gerber Fmt 4.6, Leading zero omitted, Abs format (unit mm)*
G04 Created by KiCad (PCBNEW (6.0.7)) date 2022-09-29 22:29:57*
%MOMM*%
%LPD*%
G01*
G04 APERTURE LIST*
G04 Aperture macros list*
%AMRoundRect*
0 Rectangle with rounded corners*
0 $1 Rounding radius*
0 $2 $3 $4 $5 $6 $7 $8 $9 X,Y pos of 4 corners*
0 Add a 4 corners polygon primitive as box body*
4,1,4,$2,$3,$4,$5,$6,$7,$8,$9,$2,$3,0*
0 Add four circle primitives for the rounded corners*
1,1,$1+$1,$2,$3*
1,1,$1+$1,$4,$5*
1,1,$1+$1,$6,$7*
1,1,$1+$1,$8,$9*
0 Add four rect primitives between the rounded corners*
20,1,$1+$1,$2,$3,$4,$5,0*
20,1,$1+$1,$4,$5,$6,$7,0*
20,1,$1+$1,$6,$7,$8,$9,0*
20,1,$1+$1,$8,$9,$2,$3,0*%
G04 Aperture macros list end*
%TA.AperFunction,SMDPad,CuDef*%
%ADD10RoundRect,0.250000X-0.450000X0.350000X-0.450000X-0.350000X0.450000X-0.350000X0.450000X0.350000X0*%
%TD*%
%TA.AperFunction,SMDPad,CuDef*%
%ADD11RoundRect,0.250000X-0.475000X0.337500X-0.475000X-0.337500X0.475000X-0.337500X0.475000X0.337500X0*%
%TD*%
%TA.AperFunction,SMDPad,CuDef*%
%ADD12RoundRect,0.250000X-0.350000X-0.450000X0.350000X-0.450000X0.350000X0.450000X-0.350000X0.450000X0*%
%TD*%
%TA.AperFunction,ComponentPad*%
%ADD13R,1.500000X1.050000*%
%TD*%
%TA.AperFunction,ComponentPad*%
%ADD14O,1.500000X1.050000*%
%TD*%
%TA.AperFunction,ComponentPad*%
%ADD15RoundRect,0.250000X-1.750000X1.750000X-1.750000X-1.750000X1.750000X-1.750000X1.750000X1.750000X0*%
%TD*%
%TA.AperFunction,ComponentPad*%
%ADD16C,4.000000*%
%TD*%
%TA.AperFunction,ComponentPad*%
%ADD17R,1.905000X2.000000*%
%TD*%
%TA.AperFunction,ComponentPad*%
%ADD18O,1.905000X2.000000*%
%TD*%
%TA.AperFunction,SMDPad,CuDef*%
%ADD19RoundRect,0.250000X0.337500X0.475000X-0.337500X0.475000X-0.337500X-0.475000X0.337500X-0.475000X0*%
%TD*%
%TA.AperFunction,ComponentPad*%
%ADD20RoundRect,0.249999X-1.950001X-1.950001X1.950001X-1.950001X1.950001X1.950001X-1.950001X1.950001X0*%
%TD*%
%TA.AperFunction,ComponentPad*%
%ADD21RoundRect,0.250000X1.750000X-1.750000X1.750000X1.750000X-1.750000X1.750000X-1.750000X-1.750000X0*%
%TD*%
%TA.AperFunction,ComponentPad*%
%ADD22R,2.600000X2.600000*%
%TD*%
%TA.AperFunction,ComponentPad*%
%ADD23C,2.600000*%
%TD*%
%TA.AperFunction,SMDPad,CuDef*%
%ADD24RoundRect,0.250000X-0.337500X-0.475000X0.337500X-0.475000X0.337500X0.475000X-0.337500X0.475000X0*%
%TD*%
%TA.AperFunction,Conductor*%
%ADD25C,0.500000*%
%TD*%
%TA.AperFunction,Conductor*%
%ADD26C,0.300000*%
%TD*%
G04 APERTURE END LIST*
D10*
%TO.P,R3,1*%
%TO.N,Net-(C4-Pad1)*%
X140970000Y-50070000D03*
%TO.P,R3,2*%
%TO.N,Net-(Q2-Pad3)*%
X140970000Y-52070000D03*
%TD*%
D11*
%TO.P,C3,1*%
%TO.N,/9V_CLEAN*%
X139700000Y-43645000D03*
%TO.P,C3,2*%
%TO.N,GND*%
X139700000Y-45720000D03*
%TD*%
D12*
%TO.P,R4,1*%
%TO.N,Net-(C2-Pad1)*%
X131350000Y-59690000D03*
%TO.P,R4,2*%
%TO.N,Net-(J5-Pad2)*%
X133350000Y-59690000D03*
%TD*%
D13*
%TO.P,Q1,1,E*%
%TO.N,GND*%
X129540000Y-55880000D03*
D14*
%TO.P,Q1,2,B*%
%TO.N,Net-(C2-Pad1)*%
X129540000Y-54610000D03*
%TO.P,Q1,3,C*%
%TO.N,Net-(Q1-Pad3)*%
X129540000Y-53340000D03*
%TD*%
D13*
%TO.P,Q2,1,E*%
%TO.N,Net-(J5-Pad2)*%
X140970000Y-58420000D03*
D14*
%TO.P,Q2,2,B*%
%TO.N,Net-(Q1-Pad3)*%
X140970000Y-57150000D03*
%TO.P,Q2,3,C*%
%TO.N,Net-(Q2-Pad3)*%
X140970000Y-55880000D03*
%TD*%
D15*
%TO.P,J4,1,Pin_1*%
%TO.N,/VOL*%
X148590000Y-53340000D03*
D16*
%TO.P,J4,2,Pin_2*%
%TO.N,GND*%
X148590000Y-60540000D03*
%TD*%
D17*
%TO.P,U1,1,IN*%
%TO.N,+12V*%
X133350000Y-37775000D03*
D18*
%TO.P,U1,2,GND*%
%TO.N,GND*%
X135890000Y-37775000D03*
%TO.P,U1,3,OUT*%
%TO.N,/9V_CLEAN*%
X138430000Y-37775000D03*
%TD*%
D19*
%TO.P,C2,1*%
%TO.N,Net-(C2-Pad1)*%
X123190000Y-53340000D03*
%TO.P,C2,2*%
%TO.N,/guitar_in*%
X121115000Y-53340000D03*
%TD*%
D11*
%TO.P,C5,1*%
%TO.N,/FUZZ*%
X140970000Y-70315000D03*
%TO.P,C5,2*%
%TO.N,GND*%
X140970000Y-72390000D03*
%TD*%
D20*
%TO.P,J6,1,Pin_1*%
%TO.N,/FUZZ*%
X140970000Y-64770000D03*
%TD*%
D11*
%TO.P,C1,1*%
%TO.N,+12V*%
X133350000Y-43645000D03*
%TO.P,C1,2*%
%TO.N,GND*%
X133350000Y-45720000D03*
%TD*%
D21*
%TO.P,J5,1,Pin_1*%
%TO.N,GND*%
X132080000Y-72390000D03*
D16*
%TO.P,J5,2,Pin_2*%
%TO.N,Net-(J5-Pad2)*%
X132080000Y-65190000D03*
%TD*%
D22*
%TO.P,J1,1,Pin_1*%
%TO.N,+12V*%
X125730000Y-40640000D03*
D23*
%TO.P,J1,2,Pin_2*%
%TO.N,GND*%
X120730000Y-40640000D03*
%TD*%
D10*
%TO.P,R1,1*%
%TO.N,/9V_CLEAN*%
X129540000Y-48530000D03*
%TO.P,R1,2*%
%TO.N,Net-(Q1-Pad3)*%
X129540000Y-50530000D03*
%TD*%
D20*
%TO.P,J2,1,Pin_1*%
%TO.N,/guitar_in*%
X116840000Y-53340000D03*
%TD*%
D24*
%TO.P,C4,1*%
%TO.N,Net-(C4-Pad1)*%
X143510000Y-46990000D03*
%TO.P,C4,2*%
%TO.N,/VOL*%
X145585000Y-46990000D03*
%TD*%
D12*
%TO.P,R2,1*%
%TO.N,/9V_CLEAN*%
X134620000Y-48260000D03*
%TO.P,R2,2*%
%TO.N,Net-(C4-Pad1)*%
X136620000Y-48260000D03*
%TD*%
D25*
%TO.N,+12V*%
X130485000Y-40640000D02*
X133350000Y-37775000D01*
X133350000Y-43645000D02*
X133350000Y-37775000D01*
X125730000Y-40640000D02*
X130485000Y-40640000D01*
%TO.N,/9V_CLEAN*%
X134620000Y-48260000D02*
X139235000Y-43645000D01*
X138430000Y-42375000D02*
X139700000Y-43645000D01*
X134350000Y-48530000D02*
X134620000Y-48260000D01*
X129540000Y-48530000D02*
X134350000Y-48530000D01*
X139235000Y-43645000D02*
X139700000Y-43645000D01*
X138430000Y-37775000D02*
X138430000Y-42375000D01*
D26*
%TO.N,Net-(Q1-Pad3)*%
X137160000Y-57150000D02*
X140970000Y-57150000D01*
X129540000Y-50530000D02*
X129540000Y-53340000D01*
X133350000Y-53340000D02*
X137160000Y-57150000D01*
X129540000Y-53340000D02*
X133350000Y-53340000D01*
D25*
%TO.N,Net-(C4-Pad1)*%
X143510000Y-46990000D02*
X143510000Y-47530000D01*
X136620000Y-48260000D02*
X139160000Y-48260000D01*
X143510000Y-47530000D02*
X140970000Y-50070000D01*
X139160000Y-48260000D02*
X140970000Y-50070000D01*
%TO.N,Net-(Q2-Pad3)*%
X140970000Y-52070000D02*
X140970000Y-55880000D01*
D26*
%TO.N,Net-(C2-Pad1)*%
X124460000Y-54610000D02*
X129540000Y-54610000D01*
X130590000Y-54610000D02*
X131350000Y-55370000D01*
X129540000Y-54610000D02*
X130590000Y-54610000D01*
X131350000Y-55370000D02*
X131350000Y-59690000D01*
X123190000Y-53340000D02*
X124460000Y-54610000D01*
D25*
%TO.N,Net-(J5-Pad2)*%
X133350000Y-60960000D02*
X132080000Y-62230000D01*
X134620000Y-58420000D02*
X140970000Y-58420000D01*
X133350000Y-59690000D02*
X134620000Y-58420000D01*
X133350000Y-59690000D02*
X133350000Y-60960000D01*
X132080000Y-62230000D02*
X132080000Y-65190000D01*
%TO.N,/VOL*%
X145585000Y-46990000D02*
X145585000Y-50335000D01*
X145585000Y-50335000D02*
X148590000Y-53340000D01*
D26*
%TO.N,/guitar_in*%
X121115000Y-53340000D02*
X116840000Y-53340000D01*
D25*
%TO.N,/FUZZ*%
X140970000Y-70315000D02*
X140970000Y-64770000D01*
%TD*%
%TA.AperFunction,Conductor*%
%TO.N,GND*%
G36*
X113308641Y-31770002D02*
G01*
X113355134Y-31823658D01*
X113365238Y-31893932D01*
X113335744Y-31958512D01*
X113286903Y-31993152D01*
X113229821Y-32015753D01*
X112953221Y-32167816D01*
X112697860Y-32353346D01*
X112467767Y-32569418D01*
X112266568Y-32812625D01*
X112097438Y-33079131D01*
X112095754Y-33082710D01*
X112095750Y-33082717D01*
X111969333Y-33351369D01*
X111963044Y-33364734D01*
X111865505Y-33664928D01*
X111806359Y-33974980D01*
X111788833Y-34253559D01*
X111786540Y-34290000D01*
X111806359Y-34605020D01*
X111865505Y-34915072D01*
X111963044Y-35215266D01*
X111964731Y-35218852D01*
X111964733Y-35218856D01*
X112095750Y-35497283D01*
X112095754Y-35497290D01*
X112097438Y-35500869D01*
X112266568Y-35767375D01*
X112467767Y-36010582D01*
X112697860Y-36226654D01*
X112953221Y-36412184D01*
X112956690Y-36414091D01*
X112956693Y-36414093D01*
X113164425Y-36528295D01*
X113229821Y-36564247D01*
X113233490Y-36565700D01*
X113233495Y-36565702D01*
X113483495Y-36664684D01*
X113523298Y-36680443D01*
X113829025Y-36758940D01*
X114142179Y-36798500D01*
X114457821Y-36798500D01*
X114770975Y-36758940D01*
X115076702Y-36680443D01*
X115116505Y-36664684D01*
X115366505Y-36565702D01*
X115366510Y-36565700D01*
X115370179Y-36564247D01*
X115435575Y-36528295D01*
X115643307Y-36414093D01*
X115643310Y-36414091D01*
X115646779Y-36412184D01*
X115902140Y-36226654D01*
X116132233Y-36010582D01*
X116333432Y-35767375D01*
X116502562Y-35500869D01*
X116504246Y-35497290D01*
X116504250Y-35497283D01*
X116635267Y-35218856D01*
X116635269Y-35218852D01*
X116636956Y-35215266D01*
X116734495Y-34915072D01*
X116793641Y-34605020D01*
X116813460Y-34290000D01*
X116793641Y-33974980D01*
X116734495Y-33664928D01*
X116636956Y-33364734D01*
X116630667Y-33351369D01*
X116504250Y-33082717D01*
X116504246Y-33082710D01*
X116502562Y-33079131D01*
X116333432Y-32812625D01*
X116132233Y-32569418D01*
X115902140Y-32353346D01*
X115646779Y-32167816D01*
X115370179Y-32015753D01*
X115313097Y-31993152D01*
X115257122Y-31949477D01*
X115233646Y-31882474D01*
X115250122Y-31813416D01*
X115301318Y-31764227D01*
X115359480Y-31750000D01*
X151340520Y-31750000D01*
X151408641Y-31770002D01*
X151455134Y-31823658D01*
X151465238Y-31893932D01*
X151435744Y-31958512D01*
X151386903Y-31993152D01*
X151329821Y-32015753D01*
X151053221Y-32167816D01*
X150797860Y-32353346D01*
X150567767Y-32569418D01*
X150366568Y-32812625D01*
X150197438Y-33079131D01*
X150195754Y-33082710D01*
X150195750Y-33082717D01*
X150069333Y-33351369D01*
X150063044Y-33364734D01*
X149965505Y-33664928D01*
X149906359Y-33974980D01*
X149888833Y-34253559D01*
X149886540Y-34290000D01*
X149906359Y-34605020D01*
X149965505Y-34915072D01*
X150063044Y-35215266D01*
X150064731Y-35218852D01*
X150064733Y-35218856D01*
X150195750Y-35497283D01*
X150195754Y-35497290D01*
X150197438Y-35500869D01*
X150366568Y-35767375D01*
X150567767Y-36010582D01*
X150797860Y-36226654D01*
X151053221Y-36412184D01*
X151056690Y-36414091D01*
X151056693Y-36414093D01*
X151264425Y-36528295D01*
X151329821Y-36564247D01*
X151333490Y-36565700D01*
X151333495Y-36565702D01*
X151583495Y-36664684D01*
X151623298Y-36680443D01*
X151929025Y-36758940D01*
X152242179Y-36798500D01*
X152557821Y-36798500D01*
X152870975Y-36758940D01*
X153176702Y-36680443D01*
X153216505Y-36664684D01*
X153466505Y-36565702D01*
X153466510Y-36565700D01*
X153470179Y-36564247D01*
X153535575Y-36528295D01*
X153743307Y-36414093D01*
X153743310Y-36414091D01*
X153746779Y-36412184D01*
X154002140Y-36226654D01*
X154232233Y-36010582D01*
X154433432Y-35767375D01*
X154602562Y-35500869D01*
X154604246Y-35497290D01*
X154604250Y-35497283D01*
X154735267Y-35218856D01*
X154735269Y-35218852D01*
X154736956Y-35215266D01*
X154834495Y-34915072D01*
X154893641Y-34605020D01*
X154913460Y-34290000D01*
X154893641Y-33974980D01*
X154834495Y-33664928D01*
X154736956Y-33364734D01*
X154730667Y-33351369D01*
X154604250Y-33082717D01*
X154604246Y-33082710D01*
X154602562Y-33079131D01*
X154433432Y-32812625D01*
X154232233Y-32569418D01*
X154002140Y-32353346D01*
X153746779Y-32167816D01*
X153470179Y-32015753D01*
X153413097Y-31993152D01*
X153357122Y-31949477D01*
X153333646Y-31882474D01*
X153350122Y-31813416D01*
X153401318Y-31764227D01*
X153459480Y-31750000D01*
X156084000Y-31750000D01*
X156152121Y-31770002D01*
X156198614Y-31823658D01*
X156210000Y-31876000D01*
X156210000Y-76074000D01*
X156189998Y-76142121D01*
X156136342Y-76188614D01*
X156084000Y-76200000D01*
X153459480Y-76200000D01*
X153391359Y-76179998D01*
X153344866Y-76126342D01*
X153334762Y-76056068D01*
X153364256Y-75991488D01*
X153413096Y-75956848D01*
X153466504Y-75935702D01*
X153466503Y-75935702D01*
X153470179Y-75934247D01*
X153746779Y-75782184D01*
X154002140Y-75596654D01*
X154232233Y-75380582D01*
X154433432Y-75137375D01*
X154602562Y-74870869D01*
X154604246Y-74867290D01*
X154604250Y-74867283D01*
X154735267Y-74588856D01*
X154735269Y-74588852D01*
X154736956Y-74585266D01*
X154834495Y-74285072D01*
X154893641Y-73975020D01*
X154913460Y-73660000D01*
X154893641Y-73344980D01*
X154834495Y-73034928D01*
X154736956Y-72734734D01*
X154730667Y-72721369D01*
X154604250Y-72452717D01*
X154604246Y-72452710D01*
X154602562Y-72449131D01*
X154433432Y-72182625D01*
X154232233Y-71939418D01*
X154002140Y-71723346D01*
X153746779Y-71537816D01*
X153590147Y-71451706D01*
X153473648Y-71387660D01*
X153473647Y-71387659D01*
X153470179Y-71385753D01*
X153466510Y-71384300D01*
X153466505Y-71384298D01*
X153180372Y-71271010D01*
X153180371Y-71271010D01*
X153176702Y-71269557D01*
X152870975Y-71191060D01*
X152557821Y-71151500D01*
X152242179Y-71151500D01*
X151929025Y-71191060D01*
X151623298Y-71269557D01*
X151619629Y-71271010D01*
X151619628Y-71271010D01*
X151333495Y-71384298D01*
X151333490Y-71384300D01*
X151329821Y-71385753D01*
X151326353Y-71387659D01*
X151326352Y-71387660D01*
X151209854Y-71451706D01*
X151053221Y-71537816D01*
X150797860Y-71723346D01*
X150567767Y-71939418D01*
X150366568Y-72182625D01*
X150197438Y-72449131D01*
X150195754Y-72452710D01*
X150195750Y-72452717D01*
X150069333Y-72721369D01*
X150063044Y-72734734D01*
X149965505Y-73034928D01*
X149906359Y-73344980D01*
X149888833Y-73623559D01*
X149886540Y-73660000D01*
X149906359Y-73975020D01*
X149965505Y-74285072D01*
X150063044Y-74585266D01*
X150064731Y-74588852D01*
X150064733Y-74588856D01*
X150195750Y-74867283D01*
X150195754Y-74867290D01*
X150197438Y-74870869D01*
X150366568Y-75137375D01*
X150567767Y-75380582D01*
X150797860Y-75596654D01*
X151053221Y-75782184D01*
X151329821Y-75934247D01*
X151333497Y-75935702D01*
X151333496Y-75935702D01*
X151386904Y-75956848D01*
X151442878Y-76000523D01*
X151466354Y-76067526D01*
X151449878Y-76136584D01*
X151398682Y-76185773D01*
X151340520Y-76200000D01*
X116629480Y-76200000D01*
X116561359Y-76179998D01*
X116514866Y-76126342D01*
X116504762Y-76056068D01*
X116534256Y-75991488D01*
X116583096Y-75956848D01*
X116636504Y-75935702D01*
X116636503Y-75935702D01*
X116640179Y-75934247D01*
X116916779Y-75782184D01*
X117172140Y-75596654D01*
X117402233Y-75380582D01*
X117603432Y-75137375D01*
X117772562Y-74870869D01*
X117774246Y-74867290D01*
X117774250Y-74867283D01*
X117905267Y-74588856D01*
X117905269Y-74588852D01*
X117906956Y-74585266D01*
X118004495Y-74285072D01*
X118023185Y-74187095D01*
X129572001Y-74187095D01*
X129572338Y-74193614D01*
X129582257Y-74289206D01*
X129585149Y-74302600D01*
X129636588Y-74456784D01*
X129642761Y-74469962D01*
X129728063Y-74607807D01*
X129737099Y-74619208D01*
X129851829Y-74733739D01*
X129863240Y-74742751D01*
X130001243Y-74827816D01*
X130014424Y-74833963D01*
X130168710Y-74885138D01*
X130182086Y-74888005D01*
X130276438Y-74897672D01*
X130282854Y-74898000D01*
X131807885Y-74898000D01*
X131823124Y-74893525D01*
X131824329Y-74892135D01*
X131826000Y-74884452D01*
X131826000Y-74879884D01*
X132334000Y-74879884D01*
X132338475Y-74895123D01*
X132339865Y-74896328D01*
X132347548Y-74897999D01*
X133877095Y-74897999D01*
X133883614Y-74897662D01*
X133979206Y-74887743D01*
X133992600Y-74884851D01*
X134146784Y-74833412D01*
X134159962Y-74827239D01*
X134297807Y-74741937D01*
X134309208Y-74732901D01*
X134423739Y-74618171D01*
X134432751Y-74606760D01*
X134517816Y-74468757D01*
X134523963Y-74455576D01*
X134575138Y-74301290D01*
X134578005Y-74287914D01*
X134587672Y-74193562D01*
X134588000Y-74187146D01*
X134588000Y-72774595D01*
X139737001Y-72774595D01*
X139737338Y-72781114D01*
X139747257Y-72876706D01*
X139750149Y-72890100D01*
X139801588Y-73044284D01*
X139807761Y-73057462D01*
X139893063Y-73195307D01*
X139902099Y-73206708D01*
X140016829Y-73321239D01*
X140028240Y-73330251D01*
X140166243Y-73415316D01*
X140179424Y-73421463D01*
X140333710Y-73472638D01*
X140347086Y-73475505D01*
X140441438Y-73485172D01*
X140447854Y-73485500D01*
X140697885Y-73485500D01*
X140713124Y-73481025D01*
X140714329Y-73479635D01*
X140716000Y-73471952D01*
X140716000Y-73467384D01*
X141224000Y-73467384D01*
X141228475Y-73482623D01*
X141229865Y-73483828D01*
X141237548Y-73485499D01*
X141492095Y-73485499D01*
X141498614Y-73485162D01*
X141594206Y-73475243D01*
X141607600Y-73472351D01*
X141761784Y-73420912D01*
X141774962Y-73414739D01*
X141912807Y-73329437D01*
X141924208Y-73320401D01*
X142038739Y-73205671D01*
X142047751Y-73194260D01*
X142132816Y-73056257D01*
X142138963Y-73043076D01*
X142190138Y-72888790D01*
X142193005Y-72875414D01*
X142202672Y-72781062D01*
X142203000Y-72774646D01*
X142203000Y-72662115D01*
X142198525Y-72646876D01*
X142197135Y-72645671D01*
X142189452Y-72644000D01*
X141242115Y-72644000D01*
X141226876Y-72648475D01*
X141225671Y-72649865D01*
X141224000Y-72657548D01*
X141224000Y-73467384D01*
X140716000Y-73467384D01*
X140716000Y-72662115D01*
X140711525Y-72646876D01*
X140710135Y-72645671D01*
X140702452Y-72644000D01*
X139755116Y-72644000D01*
X139739877Y-72648475D01*
X139738672Y-72649865D01*
X139737001Y-72657548D01*
X139737001Y-72774595D01*
X134588000Y-72774595D01*
X134588000Y-72662115D01*
X134583525Y-72646876D01*
X134582135Y-72645671D01*
X134574452Y-72644000D01*
X132352115Y-72644000D01*
X132336876Y-72648475D01*
X132335671Y-72649865D01*
X132334000Y-72657548D01*
X132334000Y-74879884D01*
X131826000Y-74879884D01*
X131826000Y-72662115D01*
X131821525Y-72646876D01*
X131820135Y-72645671D01*
X131812452Y-72644000D01*
X129590116Y-72644000D01*
X129574877Y-72648475D01*
X129573672Y-72649865D01*
X129572001Y-72657548D01*
X129572001Y-74187095D01*
X118023185Y-74187095D01*
X118063641Y-73975020D01*
X118083460Y-73660000D01*
X118063641Y-73344980D01*
X118004495Y-73034928D01*
X117906956Y-72734734D01*
X117900667Y-72721369D01*
X117774250Y-72452717D01*
X117774246Y-72452710D01*
X117772562Y-72449131D01*
X117603432Y-72182625D01*
X117549874Y-72117885D01*
X129572000Y-72117885D01*
X129576475Y-72133124D01*
X129577865Y-72134329D01*
X129585548Y-72136000D01*
X131807885Y-72136000D01*
X131823124Y-72131525D01*
X131824329Y-72130135D01*
X131826000Y-72122452D01*
X131826000Y-72117885D01*
X132334000Y-72117885D01*
X132338475Y-72133124D01*
X132339865Y-72134329D01*
X132347548Y-72136000D01*
X134569884Y-72136000D01*
X134585123Y-72131525D01*
X134586328Y-72130135D01*
X134587999Y-72122452D01*
X134587999Y-70592905D01*
X134587662Y-70586386D01*
X134577743Y-70490794D01*
X134574851Y-70477400D01*
X134523412Y-70323216D01*
X134517239Y-70310038D01*
X134431937Y-70172193D01*
X134422901Y-70160792D01*
X134308171Y-70046261D01*
X134296760Y-70037249D01*
X134158757Y-69952184D01*
X134145576Y-69946037D01*
X133991290Y-69894862D01*
X133977914Y-69891995D01*
X133883562Y-69882328D01*
X133877145Y-69882000D01*
X132352115Y-69882000D01*
X132336876Y-69886475D01*
X132335671Y-69887865D01*
X132334000Y-69895548D01*
X132334000Y-72117885D01*
X131826000Y-72117885D01*
X131826000Y-69900116D01*
X131821525Y-69884877D01*
X131820135Y-69883672D01*
X131812452Y-69882001D01*
X130282905Y-69882001D01*
X130276386Y-69882338D01*
X130180794Y-69892257D01*
X130167400Y-69895149D01*
X130013216Y-69946588D01*
X130000038Y-69952761D01*
X129862193Y-70038063D01*
X129850792Y-70047099D01*
X129736261Y-70161829D01*
X129727249Y-70173240D01*
X129642184Y-70311243D01*
X129636037Y-70324424D01*
X129584862Y-70478710D01*
X129581995Y-70492086D01*
X129572328Y-70586438D01*
X129572000Y-70592855D01*
X129572000Y-72117885D01*
X117549874Y-72117885D01*
X117402233Y-71939418D01*
X117172140Y-71723346D01*
X116916779Y-71537816D01*
X116760147Y-71451706D01*
X116643648Y-71387660D01*
X116643647Y-71387659D01*
X116640179Y-71385753D01*
X116636510Y-71384300D01*
X116636505Y-71384298D01*
X116350372Y-71271010D01*
X116350371Y-71271010D01*
X116346702Y-71269557D01*
X116040975Y-71191060D01*
X115727821Y-71151500D01*
X115412179Y-71151500D01*
X115099025Y-71191060D01*
X114793298Y-71269557D01*
X114789629Y-71271010D01*
X114789628Y-71271010D01*
X114503495Y-71384298D01*
X114503490Y-71384300D01*
X114499821Y-71385753D01*
X114496353Y-71387659D01*
X114496352Y-71387660D01*
X114379854Y-71451706D01*
X114223221Y-71537816D01*
X113967860Y-71723346D01*
X113737767Y-71939418D01*
X113536568Y-72182625D01*
X113367438Y-72449131D01*
X113365754Y-72452710D01*
X113365750Y-72452717D01*
X113239333Y-72721369D01*
X113233044Y-72734734D01*
X113135505Y-73034928D01*
X113076359Y-73344980D01*
X113058833Y-73623559D01*
X113056540Y-73660000D01*
X113076359Y-73975020D01*
X113135505Y-74285072D01*
X113233044Y-74585266D01*
X113234731Y-74588852D01*
X113234733Y-74588856D01*
X113365750Y-74867283D01*
X113365754Y-74867290D01*
X113367438Y-74870869D01*
X113536568Y-75137375D01*
X113737767Y-75380582D01*
X113967860Y-75596654D01*
X114223221Y-75782184D01*
X114499821Y-75934247D01*
X114503497Y-75935702D01*
X114503496Y-75935702D01*
X114556904Y-75956848D01*
X114612878Y-76000523D01*
X114636354Y-76067526D01*
X114619878Y-76136584D01*
X114568682Y-76185773D01*
X114510520Y-76200000D01*
X110616000Y-76200000D01*
X110547879Y-76179998D01*
X110501386Y-76126342D01*
X110490000Y-76074000D01*
X110490000Y-56449669D01*
X128282001Y-56449669D01*
X128282371Y-56456490D01*
X128287895Y-56507352D01*
X128291521Y-56522604D01*
X128336676Y-56643054D01*
X128345214Y-56658649D01*
X128421715Y-56760724D01*
X128434276Y-56773285D01*
X128536351Y-56849786D01*
X128551946Y-56858324D01*
X128672394Y-56903478D01*
X128687649Y-56907105D01*
X128738514Y-56912631D01*
X128745328Y-56913000D01*
X129267885Y-56913000D01*
X129283124Y-56908525D01*
X129284329Y-56907135D01*
X129286000Y-56899452D01*
X129286000Y-56152115D01*
X129281525Y-56136876D01*
X129280135Y-56135671D01*
X129272452Y-56134000D01*
X128300116Y-56134000D01*
X128284877Y-56138475D01*
X128283672Y-56139865D01*
X128282001Y-56147548D01*
X128282001Y-56449669D01*
X110490000Y-56449669D01*
X110490000Y-51339599D01*
X114131500Y-51339599D01*
X114131501Y-55340400D01*
X114142474Y-55446167D01*
X114144658Y-55452713D01*
X114195730Y-55605792D01*
X114198450Y-55613946D01*
X114291521Y-55764349D01*
X114416697Y-55889306D01*
X114567261Y-55982115D01*
X114647004Y-56008564D01*
X114728610Y-56035632D01*
X114728612Y-56035632D01*
X114735138Y-56037797D01*
X114741974Y-56038497D01*
X114741977Y-56038498D01*
X114785030Y-56042909D01*
X114839599Y-56048500D01*
X116824574Y-56048500D01*
X118840400Y-56048499D01*
X118946167Y-56037526D01*
X119105347Y-55984419D01*
X119107002Y-55983867D01*
X119107004Y-55983866D01*
X119113946Y-55981550D01*
X119264349Y-55888479D01*
X119280051Y-55872750D01*
X119384134Y-55768484D01*
X119389306Y-55763303D01*
X119463396Y-55643107D01*
X119478275Y-55618969D01*
X119478276Y-55618967D01*
X119482115Y-55612739D01*
X119508564Y-55532996D01*
X119535632Y-55451390D01*
X119535632Y-55451388D01*
X119537797Y-55444862D01*
X119539068Y-55432463D01*
X119546730Y-55357673D01*
X119548500Y-55340401D01*
X119548500Y-54124500D01*
X119568502Y-54056379D01*
X119622158Y-54009886D01*
X119674500Y-53998500D01*
X119948303Y-53998500D01*
X120016424Y-54018502D01*
X120062917Y-54072158D01*
X120067826Y-54084623D01*
X120077558Y-54113791D01*
X120085950Y-54138946D01*
X120179022Y-54289348D01*
X120304197Y-54414305D01*
X120310427Y-54418145D01*
X120310428Y-54418146D01*
X120447590Y-54502694D01*
X120454762Y-54507115D01*
X120534505Y-54533564D01*
X120616111Y-54560632D01*
X120616113Y-54560632D01*
X120622639Y-54562797D01*
X120629475Y-54563497D01*
X120629478Y-54563498D01*
X120672531Y-54567909D01*
X120727100Y-54573500D01*
X121502900Y-54573500D01*
X121506146Y-54573163D01*
X121506150Y-54573163D01*
X121601808Y-54563238D01*
X121601812Y-54563237D01*
X121608666Y-54562526D01*
X121615202Y-54560345D01*
X121615204Y-54560345D01*
X121747306Y-54516272D01*
X121776446Y-54506550D01*
X121926848Y-54413478D01*
X122051805Y-54288303D01*
X122054406Y-54284084D01*
X122111530Y-54243583D01*
X122182453Y-54240351D01*
X122243865Y-54275976D01*
X122250422Y-54283530D01*
X122254022Y-54289348D01*
X122379197Y-54414305D01*
X122385427Y-54418145D01*
X122385428Y-54418146D01*
X122522590Y-54502694D01*
X122529762Y-54507115D01*
X122609505Y-54533564D01*
X122691111Y-54560632D01*
X122691113Y-54560632D01*
X122697639Y-54562797D01*
X122704475Y-54563497D01*
X122704478Y-54563498D01*
X122747531Y-54567909D01*
X122802100Y-54573500D01*
X123440050Y-54573500D01*
X123508171Y-54593502D01*
X123529145Y-54610405D01*
X123936345Y-55017605D01*
X123944335Y-55026385D01*
X123948584Y-55033080D01*
X123954362Y-55038506D01*
X123954363Y-55038507D01*
X124000257Y-55081604D01*
X124003099Y-55084359D01*
X124023667Y-55104927D01*
X124027170Y-55107644D01*
X124036195Y-55115352D01*
X124069867Y-55146972D01*
X124076812Y-55150790D01*
X124076816Y-55150793D01*
X124088653Y-55157300D01*
X124105181Y-55168156D01*
X124122131Y-55181304D01*
X124164545Y-55199659D01*
X124175183Y-55204871D01*
X124215663Y-55227124D01*
X124223340Y-55229095D01*
X124223345Y-55229097D01*
X124236426Y-55232455D01*
X124255134Y-55238860D01*
X124274823Y-55247380D01*
X124282649Y-55248619D01*
X124282651Y-55248620D01*
X124300136Y-55251389D01*
X124320459Y-55254608D01*
X124332070Y-55257012D01*
X124363107Y-55264981D01*
X124369135Y-55266529D01*
X124369136Y-55266529D01*
X124376812Y-55268500D01*
X124398258Y-55268500D01*
X124417968Y-55270051D01*
X124431322Y-55272166D01*
X124431323Y-55272166D01*
X124439152Y-55273406D01*
X124485141Y-55269059D01*
X124496996Y-55268500D01*
X128156000Y-55268500D01*
X128224121Y-55288502D01*
X128270614Y-55342158D01*
X128282000Y-55394500D01*
X128282000Y-55607885D01*
X128286475Y-55623124D01*
X128287865Y-55624329D01*
X128295548Y-55626000D01*
X129093758Y-55626000D01*
X129107803Y-55626785D01*
X129256817Y-55643500D01*
X129668000Y-55643500D01*
X129736121Y-55663502D01*
X129782614Y-55717158D01*
X129794000Y-55769500D01*
X129794000Y-56894884D01*
X129798475Y-56910123D01*
X129799865Y-56911328D01*
X129807548Y-56912999D01*
X130334669Y-56912999D01*
X130341490Y-56912629D01*
X130392352Y-56907105D01*
X130407603Y-56903479D01*
X130521270Y-56860867D01*
X130592077Y-56855684D01*
X130654446Y-56889605D01*
X130688576Y-56951860D01*
X130691500Y-56978849D01*
X130691500Y-58468689D01*
X130671498Y-58536810D01*
X130631804Y-58575833D01*
X130525652Y-58641522D01*
X130400695Y-58766697D01*
X130307885Y-58917262D01*
X130290655Y-58969210D01*
X130258464Y-59066264D01*
X130252203Y-59085139D01*
X130241500Y-59189600D01*
X130241500Y-60190400D01*
X130241837Y-60193646D01*
X130241837Y-60193650D01*
X130245506Y-60229006D01*
X130252474Y-60296166D01*
X130308450Y-60463946D01*
X130401522Y-60614348D01*
X130526697Y-60739305D01*
X130532927Y-60743145D01*
X130532928Y-60743146D01*
X130670090Y-60827694D01*
X130677262Y-60832115D01*
X130734181Y-60850994D01*
X130838611Y-60885632D01*
X130838613Y-60885632D01*
X130845139Y-60887797D01*
X130851975Y-60888497D01*
X130851978Y-60888498D01*
X130895031Y-60892909D01*
X130949600Y-60898500D01*
X131750400Y-60898500D01*
X131753646Y-60898163D01*
X131753650Y-60898163D01*
X131849308Y-60888238D01*
X131849312Y-60888237D01*
X131856166Y-60887526D01*
X131862702Y-60885345D01*
X131862704Y-60885345D01*
X131994806Y-60841272D01*
X132023946Y-60831550D01*
X132103137Y-60782545D01*
X132171589Y-60763707D01*
X132239359Y-60784868D01*
X132284930Y-60839309D01*
X132293834Y-60909745D01*
X132258535Y-60978784D01*
X131591089Y-61646230D01*
X131576677Y-61658616D01*
X131565082Y-61667149D01*
X131565077Y-61667154D01*
X131559182Y-61671492D01*
X131554443Y-61677070D01*
X131554440Y-61677073D01*
X131524965Y-61711768D01*
X131518035Y-61719284D01*
X131512340Y-61724979D01*
X131510060Y-61727861D01*
X131494719Y-61747251D01*
X131491928Y-61750655D01*
X131449409Y-61800703D01*
X131444667Y-61806285D01*
X131441339Y-61812801D01*
X131437972Y-61817850D01*
X131434805Y-61822979D01*
X131430266Y-61828716D01*
X131399345Y-61894875D01*
X131397442Y-61898769D01*
X131364231Y-61963808D01*
X131362492Y-61970916D01*
X131360393Y-61976559D01*
X131358476Y-61982322D01*
X131355378Y-61988950D01*
X131353888Y-61996112D01*
X131353888Y-61996113D01*
X131340514Y-62060412D01*
X131339544Y-62064696D01*
X131322192Y-62135610D01*
X131321500Y-62146764D01*
X131321464Y-62146762D01*
X131321225Y-62150755D01*
X131320851Y-62154947D01*
X131319360Y-62162115D01*
X131319558Y-62169432D01*
X131321454Y-62239521D01*
X131321500Y-62242928D01*
X131321500Y-62706721D01*
X131301498Y-62774842D01*
X131241885Y-62823872D01*
X131117456Y-62873137D01*
X131013495Y-62914298D01*
X131013490Y-62914300D01*
X131009821Y-62915753D01*
X130733221Y-63067816D01*
X130477860Y-63253346D01*
X130247767Y-63469418D01*
X130046568Y-63712625D01*
X129877438Y-63979131D01*
X129875754Y-63982710D01*
X129875750Y-63982717D01*
X129744733Y-64261144D01*
X129743044Y-64264734D01*
X129645505Y-64564928D01*
X129586359Y-64874980D01*
X129566540Y-65190000D01*
X129586359Y-65505020D01*
X129645505Y-65815072D01*
X129743044Y-66115266D01*
X129744731Y-66118852D01*
X129744733Y-66118856D01*
X129875750Y-66397283D01*
X129875754Y-66397290D01*
X129877438Y-66400869D01*
X130046568Y-66667375D01*
X130247767Y-66910582D01*
X130477860Y-67126654D01*
X130733221Y-67312184D01*
X130736690Y-67314091D01*
X130736693Y-67314093D01*
X131006352Y-67462340D01*
X131009821Y-67464247D01*
X131013490Y-67465700D01*
X131013495Y-67465702D01*
X131231858Y-67552158D01*
X131303298Y-67580443D01*
X131609025Y-67658940D01*
X131922179Y-67698500D01*
X132237821Y-67698500D01*
X132550975Y-67658940D01*
X132856702Y-67580443D01*
X132928142Y-67552158D01*
X133146505Y-67465702D01*
X133146510Y-67465700D01*
X133150179Y-67464247D01*
X133153648Y-67462340D01*
X133423307Y-67314093D01*
X133423310Y-67314091D01*
X133426779Y-67312184D01*
X133682140Y-67126654D01*
X133912233Y-66910582D01*
X134113432Y-66667375D01*
X134282562Y-66400869D01*
X134284246Y-66397290D01*
X134284250Y-66397283D01*
X134415267Y-66118856D01*
X134415269Y-66118852D01*
X134416956Y-66115266D01*
X134514495Y-65815072D01*
X134573641Y-65505020D01*
X134593460Y-65190000D01*
X134573641Y-64874980D01*
X134514495Y-64564928D01*
X134416956Y-64264734D01*
X134415267Y-64261144D01*
X134284250Y-63982717D01*
X134284246Y-63982710D01*
X134282562Y-63979131D01*
X134113432Y-63712625D01*
X133912233Y-63469418D01*
X133682140Y-63253346D01*
X133426779Y-63067816D01*
X133150179Y-62915753D01*
X133146510Y-62914300D01*
X133146505Y-62914298D01*
X133042544Y-62873137D01*
X132918115Y-62823872D01*
X132862143Y-62780199D01*
X132858732Y-62769599D01*
X138261500Y-62769599D01*
X138261501Y-66770400D01*
X138272474Y-66876167D01*
X138274658Y-66882713D01*
X138325730Y-67035792D01*
X138328450Y-67043946D01*
X138421521Y-67194349D01*
X138546697Y-67319306D01*
X138697261Y-67412115D01*
X138777004Y-67438564D01*
X138858610Y-67465632D01*
X138858612Y-67465632D01*
X138865138Y-67467797D01*
X138871974Y-67468497D01*
X138871977Y-67468498D01*
X138915030Y-67472909D01*
X138969599Y-67478500D01*
X140085500Y-67478500D01*
X140153621Y-67498502D01*
X140200114Y-67552158D01*
X140211500Y-67604500D01*
X140211500Y-69190719D01*
X140191498Y-69258840D01*
X140151803Y-69297863D01*
X140020652Y-69379022D01*
X139895695Y-69504197D01*
X139802885Y-69654762D01*
X139747203Y-69822639D01*
X139736500Y-69927100D01*
X139736500Y-70702900D01*
X139747474Y-70808666D01*
X139803450Y-70976446D01*
X139896522Y-71126848D01*
X140021697Y-71251805D01*
X140026235Y-71254602D01*
X140066824Y-71311853D01*
X140070054Y-71382776D01*
X140034428Y-71444187D01*
X140025932Y-71451562D01*
X140015793Y-71459598D01*
X139901261Y-71574329D01*
X139892249Y-71585740D01*
X139807184Y-71723743D01*
X139801037Y-71736924D01*
X139749862Y-71891210D01*
X139746995Y-71904586D01*
X139737328Y-71998938D01*
X139737000Y-72005355D01*
X139737000Y-72117885D01*
X139741475Y-72133124D01*
X139742865Y-72134329D01*
X139750548Y-72136000D01*
X142184884Y-72136000D01*
X142200123Y-72131525D01*
X142201328Y-72130135D01*
X142202999Y-72122452D01*
X142202999Y-72005405D01*
X142202662Y-71998886D01*
X142192743Y-71903294D01*
X142189851Y-71889900D01*
X142138412Y-71735716D01*
X142132239Y-71722538D01*
X142046937Y-71584693D01*
X142037901Y-71573292D01*
X141923172Y-71458762D01*
X141914238Y-71451706D01*
X141873177Y-71393788D01*
X141869947Y-71322865D01*
X141905574Y-71261454D01*
X141913407Y-71254654D01*
X141919348Y-71250978D01*
X142044305Y-71125803D01*
X142137115Y-70975238D01*
X142192797Y-70807361D01*
X142203500Y-70702900D01*
X142203500Y-69927100D01*
X142200700Y-69900116D01*
X142193238Y-69828192D01*
X142193237Y-69828188D01*
X142192526Y-69821334D01*
X142136550Y-69653554D01*
X142043478Y-69503152D01*
X141918303Y-69378195D01*
X141912072Y-69374354D01*
X141788384Y-69298111D01*
X141740890Y-69245338D01*
X141728500Y-69190851D01*
X141728500Y-67604499D01*
X141748502Y-67536378D01*
X141802158Y-67489885D01*
X141854500Y-67478499D01*
X142970400Y-67478499D01*
X143076167Y-67467526D01*
X143235347Y-67414419D01*
X143237002Y-67413867D01*
X143237004Y-67413866D01*
X143243946Y-67411550D01*
X143394349Y-67318479D01*
X143519306Y-67193303D01*
X143612115Y-67042739D01*
X143667797Y-66874862D01*
X143678500Y-66770401D01*
X143678499Y-62769600D01*
X143667526Y-62663833D01*
X143615294Y-62507276D01*
X143613867Y-62502998D01*
X143613866Y-62502996D01*
X143611550Y-62496054D01*
X143605320Y-62485987D01*
X147008721Y-62485987D01*
X147017548Y-62497605D01*
X147240281Y-62659430D01*
X147246961Y-62663670D01*
X147516572Y-62811890D01*
X147523707Y-62815247D01*
X147809770Y-62928508D01*
X147817296Y-62930953D01*
X148115279Y-63007462D01*
X148123050Y-63008945D01*
X148428278Y-63047503D01*
X148436169Y-63048000D01*
X148743831Y-63048000D01*
X148751722Y-63047503D01*
X149056950Y-63008945D01*
X149064721Y-63007462D01*
X149362704Y-62930953D01*
X149370230Y-62928508D01*
X149656293Y-62815247D01*
X149663428Y-62811890D01*
X149933039Y-62663670D01*
X149939719Y-62659430D01*
X150162823Y-62497336D01*
X150171246Y-62486413D01*
X150164342Y-62473552D01*
X148602812Y-60912022D01*
X148588868Y-60904408D01*
X148587035Y-60904539D01*
X148580420Y-60908790D01*
X147015334Y-62473876D01*
X147008721Y-62485987D01*
X143605320Y-62485987D01*
X143518479Y-62345651D01*
X143393303Y-62220694D01*
X143298270Y-62162115D01*
X143248969Y-62131725D01*
X143248967Y-62131724D01*
X143242739Y-62127885D01*
X143082264Y-62074658D01*
X143081390Y-62074368D01*
X143081388Y-62074368D01*
X143074862Y-62072203D01*
X143068026Y-62071503D01*
X143068023Y-62071502D01*
X143024970Y-62067091D01*
X142970401Y-62061500D01*
X140985426Y-62061500D01*
X138969600Y-62061501D01*
X138863833Y-62072474D01*
X138857286Y-62074658D01*
X138857287Y-62074658D01*
X138702998Y-62126133D01*
X138702996Y-62126134D01*
X138696054Y-62128450D01*
X138545651Y-62221521D01*
X138420694Y-62346697D01*
X138327885Y-62497261D01*
X138272203Y-62665138D01*
X138261500Y-62769599D01*
X132858732Y-62769599D01*
X132838500Y-62706721D01*
X132838500Y-62596371D01*
X132858502Y-62528250D01*
X132875405Y-62507276D01*
X133838911Y-61543770D01*
X133853323Y-61531384D01*
X133864918Y-61522851D01*
X133864923Y-61522846D01*
X133870818Y-61518508D01*
X133875557Y-61512930D01*
X133875560Y-61512927D01*
X133905035Y-61478232D01*
X133911965Y-61470716D01*
X133917660Y-61465021D01*
X133935281Y-61442749D01*
X133938072Y-61439345D01*
X133980591Y-61389297D01*
X133980592Y-61389295D01*
X133985333Y-61383715D01*
X133988661Y-61377199D01*
X133992028Y-61372150D01*
X133995195Y-61367021D01*
X133999734Y-61361284D01*
X134030655Y-61295125D01*
X134032561Y-61291225D01*
X134065769Y-61226192D01*
X134067508Y-61219084D01*
X134069607Y-61213441D01*
X134071524Y-61207678D01*
X134074622Y-61201050D01*
X134089487Y-61129583D01*
X134090457Y-61125299D01*
X134106473Y-61059845D01*
X134107808Y-61054390D01*
X134108500Y-61043236D01*
X134108536Y-61043238D01*
X134108775Y-61039245D01*
X134109149Y-61035053D01*
X134110640Y-61027885D01*
X134108546Y-60950479D01*
X134108500Y-60947072D01*
X134108500Y-60849428D01*
X134128502Y-60781307D01*
X134162888Y-60747505D01*
X134162388Y-60746875D01*
X134168120Y-60742332D01*
X134174348Y-60738478D01*
X134187827Y-60724976D01*
X134294134Y-60618483D01*
X134299305Y-60613303D01*
X134303146Y-60607072D01*
X134342050Y-60543958D01*
X146077290Y-60543958D01*
X146096607Y-60850994D01*
X146097600Y-60858855D01*
X146155246Y-61161046D01*
X146157217Y-61168723D01*
X146252284Y-61461309D01*
X146255199Y-61468672D01*
X146386189Y-61747041D01*
X146390001Y-61753974D01*
X146554851Y-62013736D01*
X146559495Y-62020129D01*
X146634497Y-62110790D01*
X146647014Y-62119245D01*
X146657752Y-62113038D01*
X148217978Y-60552812D01*
X148224356Y-60541132D01*
X148954408Y-60541132D01*
X148954539Y-60542965D01*
X148958790Y-60549580D01*
X150521145Y-62111935D01*
X150534407Y-62119177D01*
X150544512Y-62111988D01*
X150620505Y-62020129D01*
X150625149Y-62013736D01*
X150789999Y-61753974D01*
X150793811Y-61747041D01*
X150924801Y-61468672D01*
X150927716Y-61461309D01*
X151022783Y-61168723D01*
X151024754Y-61161046D01*
X151082400Y-60858855D01*
X151083393Y-60850994D01*
X151102710Y-60543958D01*
X151102710Y-60536042D01*
X151083393Y-60229006D01*
X151082400Y-60221145D01*
X151024754Y-59918954D01*
X151022783Y-59911277D01*
X150927716Y-59618691D01*
X150924801Y-59611328D01*
X150793811Y-59332959D01*
X150789999Y-59326026D01*
X150625149Y-59066264D01*
X150620505Y-59059871D01*
X150545503Y-58969210D01*
X150532986Y-58960755D01*
X150522248Y-58966962D01*
X148962022Y-60527188D01*
X148954408Y-60541132D01*
X148224356Y-60541132D01*
X148225592Y-60538868D01*
X148225461Y-60537035D01*
X148221210Y-60530420D01*
X146658855Y-58968065D01*
X146645593Y-58960823D01*
X146635488Y-58968012D01*
X146559495Y-59059871D01*
X146554851Y-59066264D01*
X146390001Y-59326026D01*
X146386189Y-59332959D01*
X146255199Y-59611328D01*
X146252284Y-59618691D01*
X146157217Y-59911277D01*
X146155246Y-59918954D01*
X146097600Y-60221145D01*
X146096607Y-60229006D01*
X146077290Y-60536042D01*
X146077290Y-60543958D01*
X134342050Y-60543958D01*
X134388275Y-60468968D01*
X134388276Y-60468966D01*
X134392115Y-60462738D01*
X134447797Y-60294861D01*
X134458500Y-60190400D01*
X134458500Y-59706371D01*
X134478502Y-59638250D01*
X134495405Y-59617276D01*
X134897276Y-59215405D01*
X134959588Y-59181379D01*
X134986371Y-59178500D01*
X139696461Y-59178500D01*
X139764582Y-59198502D01*
X139797287Y-59228935D01*
X139856739Y-59308261D01*
X139973295Y-59395615D01*
X140109684Y-59446745D01*
X140171866Y-59453500D01*
X141768134Y-59453500D01*
X141830316Y-59446745D01*
X141966705Y-59395615D01*
X142083261Y-59308261D01*
X142170615Y-59191705D01*
X142221745Y-59055316D01*
X142228500Y-58993134D01*
X142228500Y-58593587D01*
X147008754Y-58593587D01*
X147015658Y-58606448D01*
X148577188Y-60167978D01*
X148591132Y-60175592D01*
X148592965Y-60175461D01*
X148599580Y-60171210D01*
X150164666Y-58606124D01*
X150171279Y-58594013D01*
X150162452Y-58582395D01*
X149939719Y-58420570D01*
X149933039Y-58416330D01*
X149663428Y-58268110D01*
X149656293Y-58264753D01*
X149370230Y-58151492D01*
X149362704Y-58149047D01*
X149064721Y-58072538D01*
X149056950Y-58071055D01*
X148751722Y-58032497D01*
X148743831Y-58032000D01*
X148436169Y-58032000D01*
X148428278Y-58032497D01*
X148123050Y-58071055D01*
X148115279Y-58072538D01*
X147817296Y-58149047D01*
X147809770Y-58151492D01*
X147523707Y-58264753D01*
X147516572Y-58268110D01*
X147246961Y-58416330D01*
X147240281Y-58420570D01*
X147017177Y-58582664D01*
X147008754Y-58593587D01*
X142228500Y-58593587D01*
X142228500Y-57846866D01*
X142221745Y-57784684D01*
X142190645Y-57701724D01*
X142173768Y-57656704D01*
X142173766Y-57656701D01*
X142170615Y-57648295D01*
X142165227Y-57641106D01*
X142165094Y-57640863D01*
X142149924Y-57571506D01*
X142155248Y-57543092D01*
X142210468Y-57364706D01*
X142212290Y-57358820D01*
X142233476Y-57157250D01*
X142215106Y-56955404D01*
X142202626Y-56912999D01*
X142159620Y-56766880D01*
X142157881Y-56760971D01*
X142063981Y-56581355D01*
X142064016Y-56581337D01*
X142044111Y-56515559D01*
X142059271Y-56454591D01*
X142149426Y-56287853D01*
X142152356Y-56282435D01*
X142197787Y-56135671D01*
X142210468Y-56094707D01*
X142210469Y-56094704D01*
X142212290Y-56088820D01*
X142216564Y-56048161D01*
X142232832Y-55893378D01*
X142232832Y-55893377D01*
X142233476Y-55887250D01*
X142215106Y-55685404D01*
X142202658Y-55643107D01*
X142159620Y-55496880D01*
X142157881Y-55490971D01*
X142153951Y-55483452D01*
X142080866Y-55343653D01*
X142063981Y-55311355D01*
X142058630Y-55304699D01*
X141976068Y-55202013D01*
X141936981Y-55153399D01*
X141781719Y-55023119D01*
X141781775Y-55023052D01*
X141738409Y-54969955D01*
X141728500Y-54920976D01*
X141728500Y-53191311D01*
X141748502Y-53123190D01*
X141788196Y-53084167D01*
X141894348Y-53018478D01*
X142019305Y-52893303D01*
X142065805Y-52817866D01*
X142108275Y-52748968D01*
X142108276Y-52748966D01*
X142112115Y-52742738D01*
X142155015Y-52613399D01*
X142165632Y-52581389D01*
X142165632Y-52581387D01*
X142167797Y-52574861D01*
X142168684Y-52566209D01*
X142177501Y-52480150D01*
X142178500Y-52470400D01*
X142178500Y-51669600D01*
X142168624Y-51574417D01*
X142168238Y-51570692D01*
X142168237Y-51570688D01*
X142167526Y-51563834D01*
X142111550Y-51396054D01*
X142018478Y-51245652D01*
X141931891Y-51159216D01*
X141897812Y-51096934D01*
X141902815Y-51026114D01*
X141931736Y-50981025D01*
X142014134Y-50898483D01*
X142019305Y-50893303D01*
X142071692Y-50808316D01*
X142108275Y-50748968D01*
X142108276Y-50748966D01*
X142112115Y-50742738D01*
X142144223Y-50645936D01*
X142165632Y-50581389D01*
X142165632Y-50581387D01*
X142167797Y-50574861D01*
X142178500Y-50470400D01*
X142178500Y-49986371D01*
X142198502Y-49918250D01*
X142215405Y-49897276D01*
X143856554Y-48256127D01*
X143918866Y-48222101D01*
X143932645Y-48219895D01*
X143996808Y-48213238D01*
X143996812Y-48213237D01*
X144003666Y-48212526D01*
X144010202Y-48210345D01*
X144010204Y-48210345D01*
X144164498Y-48158868D01*
X144171446Y-48156550D01*
X144321848Y-48063478D01*
X144446805Y-47938303D01*
X144449406Y-47934084D01*
X144506530Y-47893583D01*
X144577453Y-47890351D01*
X144638865Y-47925976D01*
X144645422Y-47933530D01*
X144649022Y-47939348D01*
X144774197Y-48064305D01*
X144778993Y-48067261D01*
X144819655Y-48124614D01*
X144826500Y-48165578D01*
X144826500Y-50267930D01*
X144825067Y-50286880D01*
X144821801Y-50308349D01*
X144822394Y-50315641D01*
X144822394Y-50315644D01*
X144826085Y-50361018D01*
X144826500Y-50371233D01*
X144826500Y-50379293D01*
X144826925Y-50382937D01*
X144829789Y-50407507D01*
X144830222Y-50411882D01*
X144836140Y-50484637D01*
X144838396Y-50491601D01*
X144839587Y-50497560D01*
X144840971Y-50503415D01*
X144841818Y-50510681D01*
X144866735Y-50579327D01*
X144868152Y-50583455D01*
X144887272Y-50642474D01*
X144890649Y-50652899D01*
X144894445Y-50659154D01*
X144896951Y-50664628D01*
X144899670Y-50670058D01*
X144902167Y-50676937D01*
X144906180Y-50683057D01*
X144906180Y-50683058D01*
X144942186Y-50737976D01*
X144944523Y-50741680D01*
X144982405Y-50804107D01*
X144986121Y-50808315D01*
X144986122Y-50808316D01*
X144989803Y-50812484D01*
X144989776Y-50812508D01*
X144992429Y-50815500D01*
X144995132Y-50818733D01*
X144999144Y-50824852D01*
X145055383Y-50878128D01*
X145057825Y-50880506D01*
X146044595Y-51867276D01*
X146078621Y-51929588D01*
X146081500Y-51956371D01*
X146081500Y-55140400D01*
X146081837Y-55143646D01*
X146081837Y-55143650D01*
X146091425Y-55236055D01*
X146092474Y-55246166D01*
X146094655Y-55252702D01*
X146094655Y-55252704D01*
X146124980Y-55343599D01*
X146148450Y-55413946D01*
X146241522Y-55564348D01*
X146366697Y-55689305D01*
X146372927Y-55693145D01*
X146372928Y-55693146D01*
X146510090Y-55777694D01*
X146517262Y-55782115D01*
X146597005Y-55808564D01*
X146678611Y-55835632D01*
X146678613Y-55835632D01*
X146685139Y-55837797D01*
X146691975Y-55838497D01*
X146691978Y-55838498D01*
X146735031Y-55842909D01*
X146789600Y-55848500D01*
X150390400Y-55848500D01*
X150393646Y-55848163D01*
X150393650Y-55848163D01*
X150489308Y-55838238D01*
X150489312Y-55838237D01*
X150496166Y-55837526D01*
X150502702Y-55835345D01*
X150502704Y-55835345D01*
X150634806Y-55791272D01*
X150663946Y-55781550D01*
X150814348Y-55688478D01*
X150939305Y-55563303D01*
X151007879Y-55452056D01*
X151028275Y-55418968D01*
X151028276Y-55418966D01*
X151032115Y-55412738D01*
X151061488Y-55324181D01*
X151085632Y-55251389D01*
X151085632Y-55251387D01*
X151087797Y-55244861D01*
X151088700Y-55236055D01*
X151096768Y-55157300D01*
X151098500Y-55140400D01*
X151098500Y-51539600D01*
X151098163Y-51536350D01*
X151088238Y-51440692D01*
X151088237Y-51440688D01*
X151087526Y-51433834D01*
X151077643Y-51404209D01*
X151033868Y-51273002D01*
X151031550Y-51266054D01*
X150938478Y-51115652D01*
X150813303Y-50990695D01*
X150807072Y-50986854D01*
X150668968Y-50901725D01*
X150668966Y-50901724D01*
X150662738Y-50897885D01*
X150582995Y-50871436D01*
X150501389Y-50844368D01*
X150501387Y-50844368D01*
X150494861Y-50842203D01*
X150488025Y-50841503D01*
X150488022Y-50841502D01*
X150444969Y-50837091D01*
X150390400Y-50831500D01*
X147206371Y-50831500D01*
X147138250Y-50811498D01*
X147117276Y-50794595D01*
X146380405Y-50057724D01*
X146346379Y-49995412D01*
X146343500Y-49968629D01*
X146343500Y-48165590D01*
X146363502Y-48097469D01*
X146391018Y-48067086D01*
X146396848Y-48063478D01*
X146521805Y-47938303D01*
X146551363Y-47890351D01*
X146610775Y-47793968D01*
X146610776Y-47793966D01*
X146614615Y-47787738D01*
X146670297Y-47619861D01*
X146674704Y-47576854D01*
X146678953Y-47535378D01*
X146681000Y-47515400D01*
X146681000Y-46464600D01*
X146680663Y-46461350D01*
X146670738Y-46365692D01*
X146670737Y-46365688D01*
X146670026Y-46358834D01*
X146614050Y-46191054D01*
X146520978Y-46040652D01*
X146395803Y-45915695D01*
X146389572Y-45911854D01*
X146251468Y-45826725D01*
X146251466Y-45826724D01*
X146245238Y-45822885D01*
X146084754Y-45769655D01*
X146083889Y-45769368D01*
X146083887Y-45769368D01*
X146077361Y-45767203D01*
X146070525Y-45766503D01*
X146070522Y-45766502D01*
X146027469Y-45762091D01*
X145972900Y-45756500D01*
X145197100Y-45756500D01*
X145193854Y-45756837D01*
X145193850Y-45756837D01*
X145098192Y-45766762D01*
X145098188Y-45766763D01*
X145091334Y-45767474D01*
X145084798Y-45769655D01*
X145084796Y-45769655D01*
X144952694Y-45813728D01*
X144923554Y-45823450D01*
X144773152Y-45916522D01*
X144648195Y-46041697D01*
X144645594Y-46045916D01*
X144588470Y-46086417D01*
X144517547Y-46089649D01*
X144456135Y-46054024D01*
X144449578Y-46046470D01*
X144445978Y-46040652D01*
X144320803Y-45915695D01*
X144314572Y-45911854D01*
X144176468Y-45826725D01*
X144176466Y-45826724D01*
X144170238Y-45822885D01*
X144009754Y-45769655D01*
X144008889Y-45769368D01*
X144008887Y-45769368D01*
X144002361Y-45767203D01*
X143995525Y-45766503D01*
X143995522Y-45766502D01*
X143952469Y-45762091D01*
X143897900Y-45756500D01*
X143122100Y-45756500D01*
X143118854Y-45756837D01*
X143118850Y-45756837D01*
X143023192Y-45766762D01*
X143023188Y-45766763D01*
X143016334Y-45767474D01*
X143009798Y-45769655D01*
X143009796Y-45769655D01*
X142877694Y-45813728D01*
X142848554Y-45823450D01*
X142698152Y-45916522D01*
X142573195Y-46041697D01*
X142569355Y-46047927D01*
X142569354Y-46047928D01*
X142530406Y-46111114D01*
X142480385Y-46192262D01*
X142424703Y-46360139D01*
X142424003Y-46366975D01*
X142424002Y-46366978D01*
X142419591Y-46410031D01*
X142414000Y-46464600D01*
X142414000Y-47501129D01*
X142393998Y-47569250D01*
X142377095Y-47590224D01*
X141059095Y-48908224D01*
X140996783Y-48942250D01*
X140925968Y-48937185D01*
X140880905Y-48908224D01*
X139743770Y-47771089D01*
X139731384Y-47756677D01*
X139722851Y-47745082D01*
X139722846Y-47745077D01*
X139718508Y-47739182D01*
X139712930Y-47734443D01*
X139712927Y-47734440D01*
X139678232Y-47704965D01*
X139670716Y-47698035D01*
X139665021Y-47692340D01*
X139658880Y-47687482D01*
X139642749Y-47674719D01*
X139639345Y-47671928D01*
X139589297Y-47629409D01*
X139589295Y-47629408D01*
X139583715Y-47624667D01*
X139577199Y-47621339D01*
X139572150Y-47617972D01*
X139567021Y-47614805D01*
X139561284Y-47610266D01*
X139495125Y-47579345D01*
X139491225Y-47577439D01*
X139426192Y-47544231D01*
X139419084Y-47542492D01*
X139413441Y-47540393D01*
X139407678Y-47538476D01*
X139401050Y-47535378D01*
X139329583Y-47520513D01*
X139325299Y-47519543D01*
X139321437Y-47518598D01*
X139254390Y-47502192D01*
X139248788Y-47501844D01*
X139248785Y-47501844D01*
X139243236Y-47501500D01*
X139243238Y-47501464D01*
X139239245Y-47501225D01*
X139235053Y-47500851D01*
X139227885Y-47499360D01*
X139162493Y-47501129D01*
X139150479Y-47501454D01*
X139147072Y-47501500D01*
X137741311Y-47501500D01*
X137673190Y-47481498D01*
X137634167Y-47441804D01*
X137629743Y-47434655D01*
X137568478Y-47335652D01*
X137443303Y-47210695D01*
X137437072Y-47206854D01*
X137298968Y-47121725D01*
X137298966Y-47121724D01*
X137292738Y-47117885D01*
X137189452Y-47083627D01*
X137142683Y-47068114D01*
X137084323Y-47027683D01*
X137057086Y-46962119D01*
X137069619Y-46892238D01*
X137093255Y-46859426D01*
X137848086Y-46104595D01*
X138467001Y-46104595D01*
X138467338Y-46111114D01*
X138477257Y-46206706D01*
X138480149Y-46220100D01*
X138531588Y-46374284D01*
X138537761Y-46387462D01*
X138623063Y-46525307D01*
X138632099Y-46536708D01*
X138746829Y-46651239D01*
X138758240Y-46660251D01*
X138896243Y-46745316D01*
X138909424Y-46751463D01*
X139063710Y-46802638D01*
X139077086Y-46805505D01*
X139171438Y-46815172D01*
X139177854Y-46815500D01*
X139427885Y-46815500D01*
X139443124Y-46811025D01*
X139444329Y-46809635D01*
X139446000Y-46801952D01*
X139446000Y-46797384D01*
X139954000Y-46797384D01*
X139958475Y-46812623D01*
X139959865Y-46813828D01*
X139967548Y-46815499D01*
X140222095Y-46815499D01*
X140228614Y-46815162D01*
X140324206Y-46805243D01*
X140337600Y-46802351D01*
X140491784Y-46750912D01*
X140504962Y-46744739D01*
X140642807Y-46659437D01*
X140654208Y-46650401D01*
X140768739Y-46535671D01*
X140777751Y-46524260D01*
X140862816Y-46386257D01*
X140868963Y-46373076D01*
X140920138Y-46218790D01*
X140923005Y-46205414D01*
X140932672Y-46111062D01*
X140933000Y-46104646D01*
X140933000Y-45992115D01*
X140928525Y-45976876D01*
X140927135Y-45975671D01*
X140919452Y-45974000D01*
X139972115Y-45974000D01*
X139956876Y-45978475D01*
X139955671Y-45979865D01*
X139954000Y-45987548D01*
X139954000Y-46797384D01*
X139446000Y-46797384D01*
X139446000Y-45992115D01*
X139441525Y-45976876D01*
X139440135Y-45975671D01*
X139432452Y-45974000D01*
X138485116Y-45974000D01*
X138469877Y-45978475D01*
X138468672Y-45979865D01*
X138467001Y-45987548D01*
X138467001Y-46104595D01*
X137848086Y-46104595D01*
X138449776Y-45502905D01*
X138512088Y-45468879D01*
X138538871Y-45466000D01*
X140914884Y-45466000D01*
X140930123Y-45461525D01*
X140931328Y-45460135D01*
X140932999Y-45452452D01*
X140932999Y-45335405D01*
X140932662Y-45328886D01*
X140922743Y-45233294D01*
X140919851Y-45219900D01*
X140868412Y-45065716D01*
X140862239Y-45052538D01*
X140776937Y-44914693D01*
X140767901Y-44903292D01*
X140653172Y-44788762D01*
X140644238Y-44781706D01*
X140603177Y-44723788D01*
X140599947Y-44652865D01*
X140635574Y-44591454D01*
X140643407Y-44584654D01*
X140649348Y-44580978D01*
X140774305Y-44455803D01*
X140867115Y-44305238D01*
X140922797Y-44137361D01*
X140933500Y-44032900D01*
X140933500Y-43257100D01*
X140922526Y-43151334D01*
X140866550Y-42983554D01*
X140773478Y-42833152D01*
X140648303Y-42708195D01*
X140642069Y-42704352D01*
X140503968Y-42619225D01*
X140503966Y-42619224D01*
X140497738Y-42615385D01*
X140417707Y-42588840D01*
X140336389Y-42561868D01*
X140336387Y-42561868D01*
X140329861Y-42559703D01*
X140323025Y-42559003D01*
X140323022Y-42559002D01*
X140279969Y-42554591D01*
X140225400Y-42549000D01*
X139728871Y-42549000D01*
X139660750Y-42528998D01*
X139639776Y-42512095D01*
X139225405Y-42097724D01*
X139191379Y-42035412D01*
X139188500Y-42008629D01*
X139188500Y-39143027D01*
X139208502Y-39074906D01*
X139238847Y-39042267D01*
X139399185Y-38921882D01*
X139399188Y-38921880D01*
X139403320Y-38918777D01*
X139569301Y-38745088D01*
X139704686Y-38546622D01*
X139719243Y-38515263D01*
X139803658Y-38333405D01*
X139803659Y-38333401D01*
X139805837Y-38328710D01*
X139870040Y-38097202D01*
X139891000Y-37901072D01*
X139891000Y-37666598D01*
X139889548Y-37648928D01*
X139876746Y-37493224D01*
X139876322Y-37488063D01*
X139817794Y-37255056D01*
X139721997Y-37034737D01*
X139591502Y-36833023D01*
X139429814Y-36655330D01*
X139312068Y-36562340D01*
X139245330Y-36509633D01*
X139245325Y-36509630D01*
X139241276Y-36506432D01*
X139236760Y-36503939D01*
X139236757Y-36503937D01*
X139035474Y-36392823D01*
X139035470Y-36392821D01*
X139030950Y-36390326D01*
X139026081Y-36388602D01*
X139026077Y-36388600D01*
X138809360Y-36311856D01*
X138809356Y-36311855D01*
X138804485Y-36310130D01*
X138799392Y-36309223D01*
X138799389Y-36309222D01*
X138573052Y-36268905D01*
X138573046Y-36268904D01*
X138567963Y-36267999D01*
X138475474Y-36266869D01*
X138332907Y-36265127D01*
X138332905Y-36265127D01*
X138327737Y-36265064D01*
X138090256Y-36301404D01*
X137978003Y-36338094D01*
X137866817Y-36374434D01*
X137866811Y-36374437D01*
X137861899Y-36376042D01*
X137857313Y-36378429D01*
X137857309Y-36378431D01*
X137653393Y-36484584D01*
X137648800Y-36486975D01*
X137644657Y-36490085D01*
X137644658Y-36490085D01*
X137479867Y-36613814D01*
X137456680Y-36631223D01*
X137290699Y-36804912D01*
X137265160Y-36842351D01*
X137210249Y-36887352D01*
X137139725Y-36895523D01*
X137075978Y-36864269D01*
X137055284Y-36839790D01*
X137053915Y-36837674D01*
X137047622Y-36829502D01*
X136892950Y-36659520D01*
X136885417Y-36652494D01*
X136705056Y-36510055D01*
X136696469Y-36504350D01*
X136495278Y-36393286D01*
X136485866Y-36389056D01*
X136269232Y-36312341D01*
X136259261Y-36309707D01*
X136161837Y-36292353D01*
X136148540Y-36293813D01*
X136144000Y-36308370D01*
X136144000Y-39243096D01*
X136147918Y-39256440D01*
X136162194Y-39258427D01*
X136224515Y-39248890D01*
X136234543Y-39246501D01*
X136452988Y-39175102D01*
X136462497Y-39171105D01*
X136666344Y-39064989D01*
X136675069Y-39059495D01*
X136858852Y-38921507D01*
X136866559Y-38914664D01*
X137025339Y-38748509D01*
X137031823Y-38740502D01*
X137054237Y-38707644D01*
X137109148Y-38662641D01*
X137179672Y-38654468D01*
X137243420Y-38685722D01*
X137264116Y-38710204D01*
X137268498Y-38716977D01*
X137430186Y-38894670D01*
X137488140Y-38940439D01*
X137600140Y-39028891D01*
X137615398Y-39040941D01*
X137618724Y-39043568D01*
X137618182Y-39044254D01*
X137660895Y-39095089D01*
X137671500Y-39145684D01*
X137671500Y-42307930D01*
X137670067Y-42326880D01*
X137666801Y-42348349D01*
X137667394Y-42355641D01*
X137667394Y-42355644D01*
X137671085Y-42401018D01*
X137671500Y-42411233D01*
X137671500Y-42419293D01*
X137671925Y-42422937D01*
X137674789Y-42447507D01*
X137675222Y-42451882D01*
X137680120Y-42512095D01*
X137681140Y-42524637D01*
X137683396Y-42531601D01*
X137684587Y-42537560D01*
X137685971Y-42543415D01*
X137686818Y-42550681D01*
X137711735Y-42619327D01*
X137713152Y-42623455D01*
X137735649Y-42692899D01*
X137739445Y-42699154D01*
X137741951Y-42704628D01*
X137744670Y-42710058D01*
X137747167Y-42716937D01*
X137751180Y-42723057D01*
X137751180Y-42723058D01*
X137787186Y-42777976D01*
X137789523Y-42781680D01*
X137827405Y-42844107D01*
X137831121Y-42848315D01*
X137831122Y-42848316D01*
X137834803Y-42852484D01*
X137834776Y-42852508D01*
X137837429Y-42855500D01*
X137840132Y-42858733D01*
X137844144Y-42864852D01*
X137849456Y-42869884D01*
X137900383Y-42918128D01*
X137902825Y-42920506D01*
X138305724Y-43323405D01*
X138339750Y-43385717D01*
X138334685Y-43456532D01*
X138305724Y-43501595D01*
X134792724Y-47014595D01*
X134730412Y-47048621D01*
X134703629Y-47051500D01*
X134219600Y-47051500D01*
X134216354Y-47051837D01*
X134216350Y-47051837D01*
X134120692Y-47061762D01*
X134120688Y-47061763D01*
X134113834Y-47062474D01*
X134107298Y-47064655D01*
X134107296Y-47064655D01*
X133975194Y-47108728D01*
X133946054Y-47118450D01*
X133795652Y-47211522D01*
X133670695Y-47336697D01*
X133666855Y-47342927D01*
X133666854Y-47342928D01*
X133610313Y-47434655D01*
X133577885Y-47487262D01*
X133566856Y-47520514D01*
X133536173Y-47613022D01*
X133522203Y-47655139D01*
X133521502Y-47661978D01*
X133520059Y-47668710D01*
X133517834Y-47668233D01*
X133495040Y-47724061D01*
X133436929Y-47764848D01*
X133396531Y-47771500D01*
X130699428Y-47771500D01*
X130631307Y-47751498D01*
X130597505Y-47717112D01*
X130596875Y-47717612D01*
X130592332Y-47711880D01*
X130588478Y-47705652D01*
X130463303Y-47580695D01*
X130413108Y-47549754D01*
X130318968Y-47491725D01*
X130318966Y-47491724D01*
X130312738Y-47487885D01*
X130232995Y-47461436D01*
X130151389Y-47434368D01*
X130151387Y-47434368D01*
X130144861Y-47432203D01*
X130138025Y-47431503D01*
X130138022Y-47431502D01*
X130094969Y-47427091D01*
X130040400Y-47421500D01*
X129039600Y-47421500D01*
X129036354Y-47421837D01*
X129036350Y-47421837D01*
X128940692Y-47431762D01*
X128940688Y-47431763D01*
X128933834Y-47432474D01*
X128927298Y-47434655D01*
X128927296Y-47434655D01*
X128795194Y-47478728D01*
X128766054Y-47488450D01*
X128615652Y-47581522D01*
X128490695Y-47706697D01*
X128486855Y-47712927D01*
X128486854Y-47712928D01*
X128445023Y-47780791D01*
X128397885Y-47857262D01*
X128342203Y-48025139D01*
X128331500Y-48129600D01*
X128331500Y-48930400D01*
X128331837Y-48933646D01*
X128331837Y-48933650D01*
X128332730Y-48942250D01*
X128342474Y-49036166D01*
X128344655Y-49042702D01*
X128344655Y-49042704D01*
X128356559Y-49078384D01*
X128398450Y-49203946D01*
X128491522Y-49354348D01*
X128496704Y-49359521D01*
X128578109Y-49440784D01*
X128612188Y-49503066D01*
X128607185Y-49573886D01*
X128578264Y-49618975D01*
X128502940Y-49694431D01*
X128490695Y-49706697D01*
X128397885Y-49857262D01*
X128342203Y-50025139D01*
X128331500Y-50129600D01*
X128331500Y-50930400D01*
X128331837Y-50933646D01*
X128331837Y-50933650D01*
X128340725Y-51019305D01*
X128342474Y-51036166D01*
X128344655Y-51042702D01*
X128344655Y-51042704D01*
X128383446Y-51158975D01*
X128398450Y-51203946D01*
X128491522Y-51354348D01*
X128616697Y-51479305D01*
X128622927Y-51483145D01*
X128622928Y-51483146D01*
X128760090Y-51567694D01*
X128767262Y-51572115D01*
X128795170Y-51581372D01*
X128853528Y-51621803D01*
X128880764Y-51687367D01*
X128881500Y-51700964D01*
X128881500Y-52324226D01*
X128861498Y-52392347D01*
X128814653Y-52435477D01*
X128745744Y-52472116D01*
X128745741Y-52472118D01*
X128740302Y-52475010D01*
X128735532Y-52478900D01*
X128735528Y-52478903D01*
X128649328Y-52549207D01*
X128583237Y-52603110D01*
X128579310Y-52607857D01*
X128579308Y-52607859D01*
X128457973Y-52754528D01*
X128457971Y-52754531D01*
X128454044Y-52759278D01*
X128357644Y-52937565D01*
X128355822Y-52943452D01*
X128302150Y-53116838D01*
X128297710Y-53131180D01*
X128297066Y-53137305D01*
X128297066Y-53137306D01*
X128291390Y-53191311D01*
X128276524Y-53332750D01*
X128294894Y-53534596D01*
X128352119Y-53729029D01*
X128354973Y-53734488D01*
X128372035Y-53767125D01*
X128385869Y-53836761D01*
X128359859Y-53902821D01*
X128302263Y-53944333D01*
X128260373Y-53951500D01*
X124784950Y-53951500D01*
X124716829Y-53931498D01*
X124695854Y-53914595D01*
X124322904Y-53541644D01*
X124288879Y-53479332D01*
X124286000Y-53452549D01*
X124286000Y-52814600D01*
X124285363Y-52808456D01*
X124275738Y-52715692D01*
X124275737Y-52715688D01*
X124275026Y-52708834D01*
X124259234Y-52661498D01*
X124221368Y-52548002D01*
X124219050Y-52541054D01*
X124125978Y-52390652D01*
X124000803Y-52265695D01*
X123994572Y-52261854D01*
X123856468Y-52176725D01*
X123856466Y-52176724D01*
X123850238Y-52172885D01*
X123689754Y-52119655D01*
X123688889Y-52119368D01*
X123688887Y-52119368D01*
X123682361Y-52117203D01*
X123675525Y-52116503D01*
X123675522Y-52116502D01*
X123632469Y-52112091D01*
X123577900Y-52106500D01*
X122802100Y-52106500D01*
X122798854Y-52106837D01*
X122798850Y-52106837D01*
X122703192Y-52116762D01*
X122703188Y-52116763D01*
X122696334Y-52117474D01*
X122689798Y-52119655D01*
X122689796Y-52119655D01*
X122557694Y-52163728D01*
X122528554Y-52173450D01*
X122378152Y-52266522D01*
X122253195Y-52391697D01*
X122250594Y-52395916D01*
X122193470Y-52436417D01*
X122122547Y-52439649D01*
X122061135Y-52404024D01*
X122054578Y-52396470D01*
X122050978Y-52390652D01*
X121925803Y-52265695D01*
X121919572Y-52261854D01*
X121781468Y-52176725D01*
X121781466Y-52176724D01*
X121775238Y-52172885D01*
X121614754Y-52119655D01*
X121613889Y-52119368D01*
X121613887Y-52119368D01*
X121607361Y-52117203D01*
X121600525Y-52116503D01*
X121600522Y-52116502D01*
X121557469Y-52112091D01*
X121502900Y-52106500D01*
X120727100Y-52106500D01*
X120723854Y-52106837D01*
X120723850Y-52106837D01*
X120628192Y-52116762D01*
X120628188Y-52116763D01*
X120621334Y-52117474D01*
X120614798Y-52119655D01*
X120614796Y-52119655D01*
X120482694Y-52163728D01*
X120453554Y-52173450D01*
X120303152Y-52266522D01*
X120178195Y-52391697D01*
X120174355Y-52397927D01*
X120174354Y-52397928D01*
X120123672Y-52480150D01*
X120085385Y-52542262D01*
X120074140Y-52576166D01*
X120067837Y-52595168D01*
X120027406Y-52653527D01*
X119961842Y-52680764D01*
X119948244Y-52681500D01*
X119674499Y-52681500D01*
X119606378Y-52661498D01*
X119559885Y-52607842D01*
X119548499Y-52555500D01*
X119548499Y-51339600D01*
X119537526Y-51233833D01*
X119499780Y-51120695D01*
X119483867Y-51072998D01*
X119483866Y-51072996D01*
X119481550Y-51066054D01*
X119388479Y-50915651D01*
X119263303Y-50790694D01*
X119112739Y-50697885D01*
X118952264Y-50644658D01*
X118951390Y-50644368D01*
X118951388Y-50644368D01*
X118944862Y-50642203D01*
X118938026Y-50641503D01*
X118938023Y-50641502D01*
X118894970Y-50637091D01*
X118840401Y-50631500D01*
X116855426Y-50631500D01*
X114839600Y-50631501D01*
X114733833Y-50642474D01*
X114727286Y-50644658D01*
X114727287Y-50644658D01*
X114572998Y-50696133D01*
X114572996Y-50696134D01*
X114566054Y-50698450D01*
X114415651Y-50791521D01*
X114410478Y-50796703D01*
X114365757Y-50841502D01*
X114290694Y-50916697D01*
X114280276Y-50933598D01*
X114221280Y-51029308D01*
X114197885Y-51067261D01*
X114195581Y-51074208D01*
X114152950Y-51202738D01*
X114142203Y-51235138D01*
X114141503Y-51241974D01*
X114141502Y-51241977D01*
X114140380Y-51252928D01*
X114131500Y-51339599D01*
X110490000Y-51339599D01*
X110490000Y-46104595D01*
X132117001Y-46104595D01*
X132117338Y-46111114D01*
X132127257Y-46206706D01*
X132130149Y-46220100D01*
X132181588Y-46374284D01*
X132187761Y-46387462D01*
X132273063Y-46525307D01*
X132282099Y-46536708D01*
X132396829Y-46651239D01*
X132408240Y-46660251D01*
X132546243Y-46745316D01*
X132559424Y-46751463D01*
X132713710Y-46802638D01*
X132727086Y-46805505D01*
X132821438Y-46815172D01*
X132827854Y-46815500D01*
X133077885Y-46815500D01*
X133093124Y-46811025D01*
X133094329Y-46809635D01*
X133096000Y-46801952D01*
X133096000Y-46797384D01*
X133604000Y-46797384D01*
X133608475Y-46812623D01*
X133609865Y-46813828D01*
X133617548Y-46815499D01*
X133872095Y-46815499D01*
X133878614Y-46815162D01*
X133974206Y-46805243D01*
X133987600Y-46802351D01*
X134141784Y-46750912D01*
X134154962Y-46744739D01*
X134292807Y-46659437D01*
X134304208Y-46650401D01*
X134418739Y-46535671D01*
X134427751Y-46524260D01*
X134512816Y-46386257D01*
X134518963Y-46373076D01*
X134570138Y-46218790D01*
X134573005Y-46205414D01*
X134582672Y-46111062D01*
X134583000Y-46104646D01*
X134583000Y-45992115D01*
X134578525Y-45976876D01*
X134577135Y-45975671D01*
X134569452Y-45974000D01*
X133622115Y-45974000D01*
X133606876Y-45978475D01*
X133605671Y-45979865D01*
X133604000Y-45987548D01*
X133604000Y-46797384D01*
X133096000Y-46797384D01*
X133096000Y-45992115D01*
X133091525Y-45976876D01*
X133090135Y-45975671D01*
X133082452Y-45974000D01*
X132135116Y-45974000D01*
X132119877Y-45978475D01*
X132118672Y-45979865D01*
X132117001Y-45987548D01*
X132117001Y-46104595D01*
X110490000Y-46104595D01*
X110490000Y-42084906D01*
X119649839Y-42084906D01*
X119658553Y-42096427D01*
X119765452Y-42174809D01*
X119773351Y-42179745D01*
X120002905Y-42300519D01*
X120011454Y-42304236D01*
X120256327Y-42389749D01*
X120265336Y-42392163D01*
X120520166Y-42440544D01*
X120529423Y-42441598D01*
X120788607Y-42451783D01*
X120797921Y-42451457D01*
X121055753Y-42423220D01*
X121064930Y-42421519D01*
X121315758Y-42355481D01*
X121324574Y-42352445D01*
X121562880Y-42250062D01*
X121571167Y-42245748D01*
X121791718Y-42109266D01*
X121799268Y-42103780D01*
X121804559Y-42099301D01*
X121812997Y-42086497D01*
X121806935Y-42076145D01*
X121718924Y-41988134D01*
X123921500Y-41988134D01*
X123928255Y-42050316D01*
X123979385Y-42186705D01*
X124066739Y-42303261D01*
X124183295Y-42390615D01*
X124319684Y-42441745D01*
X124381866Y-42448500D01*
X127078134Y-42448500D01*
X127140316Y-42441745D01*
X127276705Y-42390615D01*
X127393261Y-42303261D01*
X127480615Y-42186705D01*
X127531745Y-42050316D01*
X127538500Y-41988134D01*
X127538500Y-41524500D01*
X127558502Y-41456379D01*
X127612158Y-41409886D01*
X127664500Y-41398500D01*
X130417930Y-41398500D01*
X130436880Y-41399933D01*
X130451115Y-41402099D01*
X130451119Y-41402099D01*
X130458349Y-41403199D01*
X130465641Y-41402606D01*
X130465644Y-41402606D01*
X130511018Y-41398915D01*
X130521233Y-41398500D01*
X130529293Y-41398500D01*
X130542583Y-41396951D01*
X130557507Y-41395211D01*
X130561882Y-41394778D01*
X130627339Y-41389454D01*
X130627342Y-41389453D01*
X130634637Y-41388860D01*
X130641601Y-41386604D01*
X130647560Y-41385413D01*
X130653415Y-41384029D01*
X130660681Y-41383182D01*
X130729327Y-41358265D01*
X130733455Y-41356848D01*
X130795936Y-41336607D01*
X130795938Y-41336606D01*
X130802899Y-41334351D01*
X130809154Y-41330555D01*
X130814628Y-41328049D01*
X130820058Y-41325330D01*
X130826937Y-41322833D01*
X130887976Y-41282814D01*
X130891680Y-41280477D01*
X130954107Y-41242595D01*
X130962484Y-41235197D01*
X130962508Y-41235224D01*
X130965500Y-41232571D01*
X130968733Y-41229868D01*
X130974852Y-41225856D01*
X131028128Y-41169617D01*
X131030506Y-41167175D01*
X132376405Y-39821276D01*
X132438717Y-39787250D01*
X132509532Y-39792315D01*
X132566368Y-39834862D01*
X132591179Y-39901382D01*
X132591500Y-39910371D01*
X132591500Y-42520719D01*
X132571498Y-42588840D01*
X132531803Y-42627863D01*
X132400652Y-42709022D01*
X132275695Y-42834197D01*
X132271855Y-42840427D01*
X132271854Y-42840428D01*
X132262564Y-42855500D01*
X132182885Y-42984762D01*
X132127203Y-43152639D01*
X132116500Y-43257100D01*
X132116500Y-44032900D01*
X132127474Y-44138666D01*
X132183450Y-44306446D01*
X132276522Y-44456848D01*
X132401697Y-44581805D01*
X132406235Y-44584602D01*
X132446824Y-44641853D01*
X132450054Y-44712776D01*
X132414428Y-44774187D01*
X132405932Y-44781562D01*
X132395793Y-44789598D01*
X132281261Y-44904329D01*
X132272249Y-44915740D01*
X132187184Y-45053743D01*
X132181037Y-45066924D01*
X132129862Y-45221210D01*
X132126995Y-45234586D01*
X132117328Y-45328938D01*
X132117000Y-45335355D01*
X132117000Y-45447885D01*
X132121475Y-45463124D01*
X132122865Y-45464329D01*
X132130548Y-45466000D01*
X134564884Y-45466000D01*
X134580123Y-45461525D01*
X134581328Y-45460135D01*
X134582999Y-45452452D01*
X134582999Y-45335405D01*
X134582662Y-45328886D01*
X134572743Y-45233294D01*
X134569851Y-45219900D01*
X134518412Y-45065716D01*
X134512239Y-45052538D01*
X134426937Y-44914693D01*
X134417901Y-44903292D01*
X134303172Y-44788762D01*
X134294238Y-44781706D01*
X134253177Y-44723788D01*
X134249947Y-44652865D01*
X134285574Y-44591454D01*
X134293407Y-44584654D01*
X134299348Y-44580978D01*
X134424305Y-44455803D01*
X134517115Y-44305238D01*
X134572797Y-44137361D01*
X134583500Y-44032900D01*
X134583500Y-43257100D01*
X134572526Y-43151334D01*
X134516550Y-42983554D01*
X134423478Y-42833152D01*
X134298303Y-42708195D01*
X134292069Y-42704352D01*
X134168384Y-42628111D01*
X134120890Y-42575338D01*
X134108500Y-42520851D01*
X134108500Y-39409500D01*
X134128502Y-39341379D01*
X134182158Y-39294886D01*
X134234500Y-39283500D01*
X134350634Y-39283500D01*
X134412816Y-39276745D01*
X134549205Y-39225615D01*
X134665761Y-39138261D01*
X134753115Y-39021705D01*
X134760758Y-39001317D01*
X134803401Y-38944553D01*
X134869962Y-38919854D01*
X134939311Y-38935062D01*
X134956832Y-38946666D01*
X135074944Y-39039945D01*
X135083531Y-39045650D01*
X135284722Y-39156714D01*
X135294134Y-39160944D01*
X135510768Y-39237659D01*
X135520739Y-39240293D01*
X135618163Y-39257647D01*
X135631460Y-39256187D01*
X135636000Y-39241630D01*
X135636000Y-36306904D01*
X135632082Y-36293560D01*
X135617806Y-36291573D01*
X135555485Y-36301110D01*
X135545457Y-36303499D01*
X135327012Y-36374898D01*
X135317503Y-36378895D01*
X135113656Y-36485011D01*
X135104939Y-36490500D01*
X134953901Y-36603902D01*
X134887416Y-36628807D01*
X134818020Y-36613814D01*
X134767747Y-36563684D01*
X134760268Y-36547375D01*
X134753115Y-36528295D01*
X134665761Y-36411739D01*
X134549205Y-36324385D01*
X134412816Y-36273255D01*
X134350634Y-36266500D01*
X132349366Y-36266500D01*
X132287184Y-36273255D01*
X132150795Y-36324385D01*
X132034239Y-36411739D01*
X131946885Y-36528295D01*
X131895755Y-36664684D01*
X131889000Y-36726866D01*
X131889000Y-38111129D01*
X131868998Y-38179250D01*
X131852095Y-38200224D01*
X130207724Y-39844595D01*
X130145412Y-39878621D01*
X130118629Y-39881500D01*
X127664500Y-39881500D01*
X127596379Y-39861498D01*
X127549886Y-39807842D01*
X127538500Y-39755500D01*
X127538500Y-39291866D01*
X127531745Y-39229684D01*
X127480615Y-39093295D01*
X127393261Y-38976739D01*
X127276705Y-38889385D01*
X127140316Y-38838255D01*
X127078134Y-38831500D01*
X124381866Y-38831500D01*
X124319684Y-38838255D01*
X124183295Y-38889385D01*
X124066739Y-38976739D01*
X123979385Y-39093295D01*
X123928255Y-39229684D01*
X123921500Y-39291866D01*
X123921500Y-41988134D01*
X121718924Y-41988134D01*
X120742812Y-41012022D01*
X120728868Y-41004408D01*
X120727035Y-41004539D01*
X120720420Y-41008790D01*
X119656497Y-42072713D01*
X119649839Y-42084906D01*
X110490000Y-42084906D01*
X110490000Y-40597211D01*
X118917775Y-40597211D01*
X118930220Y-40856288D01*
X118931356Y-40865543D01*
X118981961Y-41119945D01*
X118984449Y-41128917D01*
X119072095Y-41373033D01*
X119075895Y-41381568D01*
X119198658Y-41610042D01*
X119203666Y-41617904D01*
X119273720Y-41711716D01*
X119284979Y-41720165D01*
X119297397Y-41713393D01*
X120357978Y-40652812D01*
X120364356Y-40641132D01*
X121094408Y-40641132D01*
X121094539Y-40642965D01*
X121098790Y-40649580D01*
X122166094Y-41716884D01*
X122178474Y-41723644D01*
X122186815Y-41717400D01*
X122320832Y-41509048D01*
X122325275Y-41500864D01*
X122431807Y-41264370D01*
X122434997Y-41255605D01*
X122505402Y-41005972D01*
X122507262Y-40996830D01*
X122540187Y-40738019D01*
X122540668Y-40731733D01*
X122542987Y-40643160D01*
X122542836Y-40636851D01*
X122523501Y-40376663D01*
X122522125Y-40367457D01*
X122464878Y-40114467D01*
X122462154Y-40105556D01*
X122368143Y-39863806D01*
X122364132Y-39855397D01*
X122235422Y-39630202D01*
X122230211Y-39622476D01*
X122186996Y-39567658D01*
X122175071Y-39559187D01*
X122163537Y-39565673D01*
X121102022Y-40627188D01*
X121094408Y-40641132D01*
X120364356Y-40641132D01*
X120365592Y-40638868D01*
X120365461Y-40637035D01*
X120361210Y-40630420D01*
X119295816Y-39565026D01*
X119282507Y-39557758D01*
X119272472Y-39564878D01*
X119256937Y-39583556D01*
X119251531Y-39591135D01*
X119116965Y-39812891D01*
X119112736Y-39821192D01*
X119012432Y-40060389D01*
X119009471Y-40069239D01*
X118945628Y-40320625D01*
X118944006Y-40329822D01*
X118918020Y-40587885D01*
X118917775Y-40597211D01*
X110490000Y-40597211D01*
X110490000Y-39192689D01*
X119647102Y-39192689D01*
X119651675Y-39202465D01*
X120717188Y-40267978D01*
X120731132Y-40275592D01*
X120732965Y-40275461D01*
X120739580Y-40271210D01*
X121804349Y-39206441D01*
X121810733Y-39194751D01*
X121801321Y-39182641D01*
X121654045Y-39080471D01*
X121646010Y-39075738D01*
X121413376Y-38961016D01*
X121404743Y-38957528D01*
X121157703Y-38878450D01*
X121148643Y-38876274D01*
X120892630Y-38834580D01*
X120883343Y-38833768D01*
X120623992Y-38830373D01*
X120614681Y-38830943D01*
X120357682Y-38865919D01*
X120348546Y-38867860D01*
X120099543Y-38940439D01*
X120090800Y-38943707D01*
X119855252Y-39052296D01*
X119847097Y-39056816D01*
X119656240Y-39181947D01*
X119647102Y-39192689D01*
X110490000Y-39192689D01*
X110490000Y-31876000D01*
X110510002Y-31807879D01*
X110563658Y-31761386D01*
X110616000Y-31750000D01*
X113240520Y-31750000D01*
X113308641Y-31770002D01*
G37*
%TD.AperFunction*%
%TD*%
M02*
