%TF.GenerationSoftware,KiCad,Pcbnew,(6.0.7)*%
%TF.CreationDate,2022-09-29T22:29:57-04:00*%
%TF.ProjectId,fuzz_v1,66757a7a-5f76-4312-9e6b-696361645f70,rev?*%
%TF.SameCoordinates,Original*%
%TF.FileFunction,Legend,Top*%
%TF.FilePolarity,Positive*%
%FSLAX46Y46*%
G04 Gerber Fmt 4.6, Leading zero omitted, Abs format (unit mm)*
G04 Created by KiCad (PCBNEW (6.0.7)) date 2022-09-29 22:29:57*
%MOMM*%
%LPD*%
G01*
G04 APERTURE LIST*
%ADD10C,0.150000*%
%ADD11C,0.120000*%
G04 APERTURE END LIST*
D10*
X147988928Y-38958571D02*
X147655595Y-38958571D01*
X147655595Y-39482380D02*
X147655595Y-38482380D01*
X148131785Y-38482380D01*
X148941309Y-38815714D02*
X148941309Y-39482380D01*
X148512738Y-38815714D02*
X148512738Y-39339523D01*
X148560357Y-39434761D01*
X148655595Y-39482380D01*
X148798452Y-39482380D01*
X148893690Y-39434761D01*
X148941309Y-39387142D01*
X149322261Y-38815714D02*
X149846071Y-38815714D01*
X149322261Y-39482380D01*
X149846071Y-39482380D01*
X150131785Y-38815714D02*
X150655595Y-38815714D01*
X150131785Y-39482380D01*
X150655595Y-39482380D01*
X148227023Y-41092380D02*
X147893690Y-40616190D01*
X147655595Y-41092380D02*
X147655595Y-40092380D01*
X148036547Y-40092380D01*
X148131785Y-40140000D01*
X148179404Y-40187619D01*
X148227023Y-40282857D01*
X148227023Y-40425714D01*
X148179404Y-40520952D01*
X148131785Y-40568571D01*
X148036547Y-40616190D01*
X147655595Y-40616190D01*
X149036547Y-41044761D02*
X148941309Y-41092380D01*
X148750833Y-41092380D01*
X148655595Y-41044761D01*
X148607976Y-40949523D01*
X148607976Y-40568571D01*
X148655595Y-40473333D01*
X148750833Y-40425714D01*
X148941309Y-40425714D01*
X149036547Y-40473333D01*
X149084166Y-40568571D01*
X149084166Y-40663809D01*
X148607976Y-40759047D01*
X149417500Y-40425714D02*
X149655595Y-41092380D01*
X149893690Y-40425714D01*
X150274642Y-40997142D02*
X150322261Y-41044761D01*
X150274642Y-41092380D01*
X150227023Y-41044761D01*
X150274642Y-40997142D01*
X150274642Y-41092380D01*
X152036547Y-41092380D02*
X151465119Y-41092380D01*
X151750833Y-41092380D02*
X151750833Y-40092380D01*
X151655595Y-40235238D01*
X151560357Y-40330476D01*
X151465119Y-40378095D01*
X147846071Y-41702380D02*
X147941309Y-41702380D01*
X148036547Y-41750000D01*
X148084166Y-41797619D01*
X148131785Y-41892857D01*
X148179404Y-42083333D01*
X148179404Y-42321428D01*
X148131785Y-42511904D01*
X148084166Y-42607142D01*
X148036547Y-42654761D01*
X147941309Y-42702380D01*
X147846071Y-42702380D01*
X147750833Y-42654761D01*
X147703214Y-42607142D01*
X147655595Y-42511904D01*
X147607976Y-42321428D01*
X147607976Y-42083333D01*
X147655595Y-41892857D01*
X147703214Y-41797619D01*
X147750833Y-41750000D01*
X147846071Y-41702380D01*
X148655595Y-42702380D02*
X148846071Y-42702380D01*
X148941309Y-42654761D01*
X148988928Y-42607142D01*
X149084166Y-42464285D01*
X149131785Y-42273809D01*
X149131785Y-41892857D01*
X149084166Y-41797619D01*
X149036547Y-41750000D01*
X148941309Y-41702380D01*
X148750833Y-41702380D01*
X148655595Y-41750000D01*
X148607976Y-41797619D01*
X148560357Y-41892857D01*
X148560357Y-42130952D01*
X148607976Y-42226190D01*
X148655595Y-42273809D01*
X148750833Y-42321428D01*
X148941309Y-42321428D01*
X149036547Y-42273809D01*
X149084166Y-42226190D01*
X149131785Y-42130952D01*
X150274642Y-41654761D02*
X149417500Y-42940476D01*
X150560357Y-41797619D02*
X150607976Y-41750000D01*
X150703214Y-41702380D01*
X150941309Y-41702380D01*
X151036547Y-41750000D01*
X151084166Y-41797619D01*
X151131785Y-41892857D01*
X151131785Y-41988095D01*
X151084166Y-42130952D01*
X150512738Y-42702380D01*
X151131785Y-42702380D01*
X151607976Y-42702380D02*
X151798452Y-42702380D01*
X151893690Y-42654761D01*
X151941309Y-42607142D01*
X152036547Y-42464285D01*
X152084166Y-42273809D01*
X152084166Y-41892857D01*
X152036547Y-41797619D01*
X151988928Y-41750000D01*
X151893690Y-41702380D01*
X151703214Y-41702380D01*
X151607976Y-41750000D01*
X151560357Y-41797619D01*
X151512738Y-41892857D01*
X151512738Y-42130952D01*
X151560357Y-42226190D01*
X151607976Y-42273809D01*
X151703214Y-42321428D01*
X151893690Y-42321428D01*
X151988928Y-42273809D01*
X152036547Y-42226190D01*
X152084166Y-42130952D01*
X153227023Y-41654761D02*
X152369880Y-42940476D01*
X153512738Y-41797619D02*
X153560357Y-41750000D01*
X153655595Y-41702380D01*
X153893690Y-41702380D01*
X153988928Y-41750000D01*
X154036547Y-41797619D01*
X154084166Y-41892857D01*
X154084166Y-41988095D01*
X154036547Y-42130952D01*
X153465119Y-42702380D01*
X154084166Y-42702380D01*
X154465119Y-41797619D02*
X154512738Y-41750000D01*
X154607976Y-41702380D01*
X154846071Y-41702380D01*
X154941309Y-41750000D01*
X154988928Y-41797619D01*
X155036547Y-41892857D01*
X155036547Y-41988095D01*
X154988928Y-42130952D01*
X154417500Y-42702380D01*
X155036547Y-42702380D01*
X112095595Y-62748571D02*
X112428928Y-62748571D01*
X112571785Y-63272380D02*
X112095595Y-63272380D01*
X112095595Y-62272380D01*
X112571785Y-62272380D01*
X113571785Y-63177142D02*
X113524166Y-63224761D01*
X113381309Y-63272380D01*
X113286071Y-63272380D01*
X113143214Y-63224761D01*
X113047976Y-63129523D01*
X113000357Y-63034285D01*
X112952738Y-62843809D01*
X112952738Y-62700952D01*
X113000357Y-62510476D01*
X113047976Y-62415238D01*
X113143214Y-62320000D01*
X113286071Y-62272380D01*
X113381309Y-62272380D01*
X113524166Y-62320000D01*
X113571785Y-62367619D01*
X114000357Y-62748571D02*
X114333690Y-62748571D01*
X114476547Y-63272380D02*
X114000357Y-63272380D01*
X114000357Y-62272380D01*
X114476547Y-62272380D01*
X115333690Y-62605714D02*
X115333690Y-63272380D01*
X115095595Y-62224761D02*
X114857500Y-62939047D01*
X115476547Y-62939047D01*
X115905119Y-63272380D02*
X116095595Y-63272380D01*
X116190833Y-63224761D01*
X116238452Y-63177142D01*
X116333690Y-63034285D01*
X116381309Y-62843809D01*
X116381309Y-62462857D01*
X116333690Y-62367619D01*
X116286071Y-62320000D01*
X116190833Y-62272380D01*
X116000357Y-62272380D01*
X115905119Y-62320000D01*
X115857500Y-62367619D01*
X115809880Y-62462857D01*
X115809880Y-62700952D01*
X115857500Y-62796190D01*
X115905119Y-62843809D01*
X116000357Y-62891428D01*
X116190833Y-62891428D01*
X116286071Y-62843809D01*
X116333690Y-62796190D01*
X116381309Y-62700952D01*
X117000357Y-62272380D02*
X117095595Y-62272380D01*
X117190833Y-62320000D01*
X117238452Y-62367619D01*
X117286071Y-62462857D01*
X117333690Y-62653333D01*
X117333690Y-62891428D01*
X117286071Y-63081904D01*
X117238452Y-63177142D01*
X117190833Y-63224761D01*
X117095595Y-63272380D01*
X117000357Y-63272380D01*
X116905119Y-63224761D01*
X116857500Y-63177142D01*
X116809880Y-63081904D01*
X116762261Y-62891428D01*
X116762261Y-62653333D01*
X116809880Y-62462857D01*
X116857500Y-62367619D01*
X116905119Y-62320000D01*
X117000357Y-62272380D01*
X117714642Y-62367619D02*
X117762261Y-62320000D01*
X117857500Y-62272380D01*
X118095595Y-62272380D01*
X118190833Y-62320000D01*
X118238452Y-62367619D01*
X118286071Y-62462857D01*
X118286071Y-62558095D01*
X118238452Y-62700952D01*
X117667023Y-63272380D01*
X118286071Y-63272380D01*
X118667023Y-62367619D02*
X118714642Y-62320000D01*
X118809880Y-62272380D01*
X119047976Y-62272380D01*
X119143214Y-62320000D01*
X119190833Y-62367619D01*
X119238452Y-62462857D01*
X119238452Y-62558095D01*
X119190833Y-62700952D01*
X118619404Y-63272380D01*
X119238452Y-63272380D01*
X120286071Y-62272380D02*
X120857500Y-62272380D01*
X120571785Y-63272380D02*
X120571785Y-62272380D01*
X121571785Y-63224761D02*
X121476547Y-63272380D01*
X121286071Y-63272380D01*
X121190833Y-63224761D01*
X121143214Y-63129523D01*
X121143214Y-62748571D01*
X121190833Y-62653333D01*
X121286071Y-62605714D01*
X121476547Y-62605714D01*
X121571785Y-62653333D01*
X121619404Y-62748571D01*
X121619404Y-62843809D01*
X121143214Y-62939047D01*
X122476547Y-63272380D02*
X122476547Y-62748571D01*
X122428928Y-62653333D01*
X122333690Y-62605714D01*
X122143214Y-62605714D01*
X122047976Y-62653333D01*
X122476547Y-63224761D02*
X122381309Y-63272380D01*
X122143214Y-63272380D01*
X122047976Y-63224761D01*
X122000357Y-63129523D01*
X122000357Y-63034285D01*
X122047976Y-62939047D01*
X122143214Y-62891428D01*
X122381309Y-62891428D01*
X122476547Y-62843809D01*
X122952738Y-63272380D02*
X122952738Y-62605714D01*
X122952738Y-62700952D02*
X123000357Y-62653333D01*
X123095595Y-62605714D01*
X123238452Y-62605714D01*
X123333690Y-62653333D01*
X123381309Y-62748571D01*
X123381309Y-63272380D01*
X123381309Y-62748571D02*
X123428928Y-62653333D01*
X123524166Y-62605714D01*
X123667023Y-62605714D01*
X123762261Y-62653333D01*
X123809880Y-62748571D01*
X123809880Y-63272380D01*
X125000357Y-62367619D02*
X125047976Y-62320000D01*
X125143214Y-62272380D01*
X125381309Y-62272380D01*
X125476547Y-62320000D01*
X125524166Y-62367619D01*
X125571785Y-62462857D01*
X125571785Y-62558095D01*
X125524166Y-62700952D01*
X124952738Y-63272380D01*
X125571785Y-63272380D01*
X112095595Y-64882380D02*
X112095595Y-63882380D01*
X112333690Y-63882380D01*
X112476547Y-63930000D01*
X112571785Y-64025238D01*
X112619404Y-64120476D01*
X112667023Y-64310952D01*
X112667023Y-64453809D01*
X112619404Y-64644285D01*
X112571785Y-64739523D01*
X112476547Y-64834761D01*
X112333690Y-64882380D01*
X112095595Y-64882380D01*
X113524166Y-64882380D02*
X113524166Y-64358571D01*
X113476547Y-64263333D01*
X113381309Y-64215714D01*
X113190833Y-64215714D01*
X113095595Y-64263333D01*
X113524166Y-64834761D02*
X113428928Y-64882380D01*
X113190833Y-64882380D01*
X113095595Y-64834761D01*
X113047976Y-64739523D01*
X113047976Y-64644285D01*
X113095595Y-64549047D01*
X113190833Y-64501428D01*
X113428928Y-64501428D01*
X113524166Y-64453809D01*
X113905119Y-64215714D02*
X114143214Y-64882380D01*
X114381309Y-64215714D01*
X114762261Y-64882380D02*
X114762261Y-64215714D01*
X114762261Y-63882380D02*
X114714642Y-63930000D01*
X114762261Y-63977619D01*
X114809880Y-63930000D01*
X114762261Y-63882380D01*
X114762261Y-63977619D01*
X115667023Y-64882380D02*
X115667023Y-63882380D01*
X115667023Y-64834761D02*
X115571785Y-64882380D01*
X115381309Y-64882380D01*
X115286071Y-64834761D01*
X115238452Y-64787142D01*
X115190833Y-64691904D01*
X115190833Y-64406190D01*
X115238452Y-64310952D01*
X115286071Y-64263333D01*
X115381309Y-64215714D01*
X115571785Y-64215714D01*
X115667023Y-64263333D01*
X116905119Y-64882380D02*
X116905119Y-63882380D01*
X117476547Y-64882380D01*
X117476547Y-63882380D01*
X117952738Y-64882380D02*
X117952738Y-64215714D01*
X117952738Y-63882380D02*
X117905119Y-63930000D01*
X117952738Y-63977619D01*
X118000357Y-63930000D01*
X117952738Y-63882380D01*
X117952738Y-63977619D01*
X118857500Y-64834761D02*
X118762261Y-64882380D01*
X118571785Y-64882380D01*
X118476547Y-64834761D01*
X118428928Y-64787142D01*
X118381309Y-64691904D01*
X118381309Y-64406190D01*
X118428928Y-64310952D01*
X118476547Y-64263333D01*
X118571785Y-64215714D01*
X118762261Y-64215714D01*
X118857500Y-64263333D01*
X119286071Y-64882380D02*
X119286071Y-63882380D01*
X119381309Y-64501428D02*
X119667023Y-64882380D01*
X119667023Y-64215714D02*
X119286071Y-64596666D01*
X120476547Y-64834761D02*
X120381309Y-64882380D01*
X120190833Y-64882380D01*
X120095595Y-64834761D01*
X120047976Y-64739523D01*
X120047976Y-64358571D01*
X120095595Y-64263333D01*
X120190833Y-64215714D01*
X120381309Y-64215714D01*
X120476547Y-64263333D01*
X120524166Y-64358571D01*
X120524166Y-64453809D01*
X120047976Y-64549047D01*
X121095595Y-64882380D02*
X121000357Y-64834761D01*
X120952738Y-64739523D01*
X120952738Y-63882380D01*
X112095595Y-66492380D02*
X112095595Y-65492380D01*
X112428928Y-66206666D01*
X112762261Y-65492380D01*
X112762261Y-66492380D01*
X113238452Y-66397142D02*
X113286071Y-66444761D01*
X113238452Y-66492380D01*
X113190833Y-66444761D01*
X113238452Y-66397142D01*
X113238452Y-66492380D01*
X114428928Y-66444761D02*
X114571785Y-66492380D01*
X114809880Y-66492380D01*
X114905119Y-66444761D01*
X114952738Y-66397142D01*
X115000357Y-66301904D01*
X115000357Y-66206666D01*
X114952738Y-66111428D01*
X114905119Y-66063809D01*
X114809880Y-66016190D01*
X114619404Y-65968571D01*
X114524166Y-65920952D01*
X114476547Y-65873333D01*
X114428928Y-65778095D01*
X114428928Y-65682857D01*
X114476547Y-65587619D01*
X114524166Y-65540000D01*
X114619404Y-65492380D01*
X114857500Y-65492380D01*
X115000357Y-65540000D01*
X115857500Y-66444761D02*
X115762261Y-66492380D01*
X115571785Y-66492380D01*
X115476547Y-66444761D01*
X115428928Y-66397142D01*
X115381309Y-66301904D01*
X115381309Y-66016190D01*
X115428928Y-65920952D01*
X115476547Y-65873333D01*
X115571785Y-65825714D01*
X115762261Y-65825714D01*
X115857500Y-65873333D01*
X116286071Y-66492380D02*
X116286071Y-65825714D01*
X116286071Y-65492380D02*
X116238452Y-65540000D01*
X116286071Y-65587619D01*
X116333690Y-65540000D01*
X116286071Y-65492380D01*
X116286071Y-65587619D01*
X116762261Y-66492380D02*
X116762261Y-65825714D01*
X116762261Y-66016190D02*
X116809880Y-65920952D01*
X116857500Y-65873333D01*
X116952738Y-65825714D01*
X117047976Y-65825714D01*
X117524166Y-66492380D02*
X117428928Y-66444761D01*
X117381309Y-66397142D01*
X117333690Y-66301904D01*
X117333690Y-66016190D01*
X117381309Y-65920952D01*
X117428928Y-65873333D01*
X117524166Y-65825714D01*
X117667023Y-65825714D01*
X117762261Y-65873333D01*
X117809880Y-65920952D01*
X117857500Y-66016190D01*
X117857500Y-66301904D01*
X117809880Y-66397142D01*
X117762261Y-66444761D01*
X117667023Y-66492380D01*
X117524166Y-66492380D01*
X118714642Y-66444761D02*
X118619404Y-66492380D01*
X118428928Y-66492380D01*
X118333690Y-66444761D01*
X118286071Y-66397142D01*
X118238452Y-66301904D01*
X118238452Y-66016190D01*
X118286071Y-65920952D01*
X118333690Y-65873333D01*
X118428928Y-65825714D01*
X118619404Y-65825714D01*
X118714642Y-65873333D01*
X119571785Y-66444761D02*
X119476547Y-66492380D01*
X119286071Y-66492380D01*
X119190833Y-66444761D01*
X119143214Y-66397142D01*
X119095595Y-66301904D01*
X119095595Y-66016190D01*
X119143214Y-65920952D01*
X119190833Y-65873333D01*
X119286071Y-65825714D01*
X119476547Y-65825714D01*
X119571785Y-65873333D01*
X120143214Y-66492380D02*
X120047976Y-66444761D01*
X120000357Y-66397142D01*
X119952738Y-66301904D01*
X119952738Y-66016190D01*
X120000357Y-65920952D01*
X120047976Y-65873333D01*
X120143214Y-65825714D01*
X120286071Y-65825714D01*
X120381309Y-65873333D01*
X120428928Y-65920952D01*
X120476547Y-66016190D01*
X120476547Y-66301904D01*
X120428928Y-66397142D01*
X120381309Y-66444761D01*
X120286071Y-66492380D01*
X120143214Y-66492380D01*
X112381309Y-67102380D02*
X112381309Y-67816666D01*
X112333690Y-67959523D01*
X112238452Y-68054761D01*
X112095595Y-68102380D01*
X112000357Y-68102380D01*
X112857500Y-68007142D02*
X112905119Y-68054761D01*
X112857500Y-68102380D01*
X112809880Y-68054761D01*
X112857500Y-68007142D01*
X112857500Y-68102380D01*
X114667023Y-68102380D02*
X114333690Y-67626190D01*
X114095595Y-68102380D02*
X114095595Y-67102380D01*
X114476547Y-67102380D01*
X114571785Y-67150000D01*
X114619404Y-67197619D01*
X114667023Y-67292857D01*
X114667023Y-67435714D01*
X114619404Y-67530952D01*
X114571785Y-67578571D01*
X114476547Y-67626190D01*
X114095595Y-67626190D01*
X115524166Y-68102380D02*
X115524166Y-67578571D01*
X115476547Y-67483333D01*
X115381309Y-67435714D01*
X115190833Y-67435714D01*
X115095595Y-67483333D01*
X115524166Y-68054761D02*
X115428928Y-68102380D01*
X115190833Y-68102380D01*
X115095595Y-68054761D01*
X115047976Y-67959523D01*
X115047976Y-67864285D01*
X115095595Y-67769047D01*
X115190833Y-67721428D01*
X115428928Y-67721428D01*
X115524166Y-67673809D01*
X116000357Y-68102380D02*
X116000357Y-67435714D01*
X116000357Y-67530952D02*
X116047976Y-67483333D01*
X116143214Y-67435714D01*
X116286071Y-67435714D01*
X116381309Y-67483333D01*
X116428928Y-67578571D01*
X116428928Y-68102380D01*
X116428928Y-67578571D02*
X116476547Y-67483333D01*
X116571785Y-67435714D01*
X116714642Y-67435714D01*
X116809880Y-67483333D01*
X116857500Y-67578571D01*
X116857500Y-68102380D01*
X117190833Y-67435714D02*
X117571785Y-67435714D01*
X117333690Y-67102380D02*
X117333690Y-67959523D01*
X117381309Y-68054761D01*
X117476547Y-68102380D01*
X117571785Y-68102380D01*
X117905119Y-68102380D02*
X117905119Y-67102380D01*
X118333690Y-68102380D02*
X118333690Y-67578571D01*
X118286071Y-67483333D01*
X118190833Y-67435714D01*
X118047976Y-67435714D01*
X117952738Y-67483333D01*
X117905119Y-67530952D01*
X119238452Y-67435714D02*
X119238452Y-68102380D01*
X118809880Y-67435714D02*
X118809880Y-67959523D01*
X118857500Y-68054761D01*
X118952738Y-68102380D01*
X119095595Y-68102380D01*
X119190833Y-68054761D01*
X119238452Y-68007142D01*
X119714642Y-67435714D02*
X119714642Y-68102380D01*
X119714642Y-67530952D02*
X119762261Y-67483333D01*
X119857500Y-67435714D01*
X120000357Y-67435714D01*
X120095595Y-67483333D01*
X120143214Y-67578571D01*
X120143214Y-68102380D01*
X112095595Y-69712380D02*
X112095595Y-68712380D01*
X112095595Y-69188571D02*
X112667023Y-69188571D01*
X112667023Y-69712380D02*
X112667023Y-68712380D01*
X113143214Y-69617142D02*
X113190833Y-69664761D01*
X113143214Y-69712380D01*
X113095595Y-69664761D01*
X113143214Y-69617142D01*
X113143214Y-69712380D01*
X114571785Y-68712380D02*
X114762261Y-68712380D01*
X114857500Y-68760000D01*
X114952738Y-68855238D01*
X115000357Y-69045714D01*
X115000357Y-69379047D01*
X114952738Y-69569523D01*
X114857500Y-69664761D01*
X114762261Y-69712380D01*
X114571785Y-69712380D01*
X114476547Y-69664761D01*
X114381309Y-69569523D01*
X114333690Y-69379047D01*
X114333690Y-69045714D01*
X114381309Y-68855238D01*
X114476547Y-68760000D01*
X114571785Y-68712380D01*
X115571785Y-69712380D02*
X115476547Y-69664761D01*
X115428928Y-69617142D01*
X115381309Y-69521904D01*
X115381309Y-69236190D01*
X115428928Y-69140952D01*
X115476547Y-69093333D01*
X115571785Y-69045714D01*
X115714642Y-69045714D01*
X115809880Y-69093333D01*
X115857500Y-69140952D01*
X115905119Y-69236190D01*
X115905119Y-69521904D01*
X115857500Y-69617142D01*
X115809880Y-69664761D01*
X115714642Y-69712380D01*
X115571785Y-69712380D01*
%TO.C,R3*%
X143072380Y-51236666D02*
X142596190Y-51570000D01*
X143072380Y-51808095D02*
X142072380Y-51808095D01*
X142072380Y-51427142D01*
X142120000Y-51331904D01*
X142167619Y-51284285D01*
X142262857Y-51236666D01*
X142405714Y-51236666D01*
X142500952Y-51284285D01*
X142548571Y-51331904D01*
X142596190Y-51427142D01*
X142596190Y-51808095D01*
X142072380Y-50903333D02*
X142072380Y-50284285D01*
X142453333Y-50617619D01*
X142453333Y-50474761D01*
X142500952Y-50379523D01*
X142548571Y-50331904D01*
X142643809Y-50284285D01*
X142881904Y-50284285D01*
X142977142Y-50331904D01*
X143024761Y-50379523D01*
X143072380Y-50474761D01*
X143072380Y-50760476D01*
X143024761Y-50855714D01*
X142977142Y-50903333D01*
%TO.C,C3*%
X141737142Y-44849166D02*
X141784761Y-44896785D01*
X141832380Y-45039642D01*
X141832380Y-45134880D01*
X141784761Y-45277738D01*
X141689523Y-45372976D01*
X141594285Y-45420595D01*
X141403809Y-45468214D01*
X141260952Y-45468214D01*
X141070476Y-45420595D01*
X140975238Y-45372976D01*
X140880000Y-45277738D01*
X140832380Y-45134880D01*
X140832380Y-45039642D01*
X140880000Y-44896785D01*
X140927619Y-44849166D01*
X140832380Y-44515833D02*
X140832380Y-43896785D01*
X141213333Y-44230119D01*
X141213333Y-44087261D01*
X141260952Y-43992023D01*
X141308571Y-43944404D01*
X141403809Y-43896785D01*
X141641904Y-43896785D01*
X141737142Y-43944404D01*
X141784761Y-43992023D01*
X141832380Y-44087261D01*
X141832380Y-44372976D01*
X141784761Y-44468214D01*
X141737142Y-44515833D01*
%TO.C,R4*%
X128722380Y-59856666D02*
X128246190Y-60190000D01*
X128722380Y-60428095D02*
X127722380Y-60428095D01*
X127722380Y-60047142D01*
X127770000Y-59951904D01*
X127817619Y-59904285D01*
X127912857Y-59856666D01*
X128055714Y-59856666D01*
X128150952Y-59904285D01*
X128198571Y-59951904D01*
X128246190Y-60047142D01*
X128246190Y-60428095D01*
X128055714Y-58999523D02*
X128722380Y-58999523D01*
X127674761Y-59237619D02*
X128389047Y-59475714D01*
X128389047Y-58856666D01*
%TO.C,Q1*%
X126527619Y-54705238D02*
X126480000Y-54800476D01*
X126384761Y-54895714D01*
X126241904Y-55038571D01*
X126194285Y-55133809D01*
X126194285Y-55229047D01*
X126432380Y-55181428D02*
X126384761Y-55276666D01*
X126289523Y-55371904D01*
X126099047Y-55419523D01*
X125765714Y-55419523D01*
X125575238Y-55371904D01*
X125480000Y-55276666D01*
X125432380Y-55181428D01*
X125432380Y-54990952D01*
X125480000Y-54895714D01*
X125575238Y-54800476D01*
X125765714Y-54752857D01*
X126099047Y-54752857D01*
X126289523Y-54800476D01*
X126384761Y-54895714D01*
X126432380Y-54990952D01*
X126432380Y-55181428D01*
X126432380Y-53800476D02*
X126432380Y-54371904D01*
X126432380Y-54086190D02*
X125432380Y-54086190D01*
X125575238Y-54181428D01*
X125670476Y-54276666D01*
X125718095Y-54371904D01*
%TO.C,Q2*%
X137957619Y-57245238D02*
X137910000Y-57340476D01*
X137814761Y-57435714D01*
X137671904Y-57578571D01*
X137624285Y-57673809D01*
X137624285Y-57769047D01*
X137862380Y-57721428D02*
X137814761Y-57816666D01*
X137719523Y-57911904D01*
X137529047Y-57959523D01*
X137195714Y-57959523D01*
X137005238Y-57911904D01*
X136910000Y-57816666D01*
X136862380Y-57721428D01*
X136862380Y-57530952D01*
X136910000Y-57435714D01*
X137005238Y-57340476D01*
X137195714Y-57292857D01*
X137529047Y-57292857D01*
X137719523Y-57340476D01*
X137814761Y-57435714D01*
X137862380Y-57530952D01*
X137862380Y-57721428D01*
X136957619Y-56911904D02*
X136910000Y-56864285D01*
X136862380Y-56769047D01*
X136862380Y-56530952D01*
X136910000Y-56435714D01*
X136957619Y-56388095D01*
X137052857Y-56340476D01*
X137148095Y-56340476D01*
X137290952Y-56388095D01*
X137862380Y-56959523D01*
X137862380Y-56340476D01*
%TO.C,J4*%
X151242380Y-57273333D02*
X151956666Y-57273333D01*
X152099523Y-57320952D01*
X152194761Y-57416190D01*
X152242380Y-57559047D01*
X152242380Y-57654285D01*
X151575714Y-56368571D02*
X152242380Y-56368571D01*
X151194761Y-56606666D02*
X151909047Y-56844761D01*
X151909047Y-56225714D01*
%TO.C,U1*%
X135128095Y-32957380D02*
X135128095Y-33766904D01*
X135175714Y-33862142D01*
X135223333Y-33909761D01*
X135318571Y-33957380D01*
X135509047Y-33957380D01*
X135604285Y-33909761D01*
X135651904Y-33862142D01*
X135699523Y-33766904D01*
X135699523Y-32957380D01*
X136699523Y-33957380D02*
X136128095Y-33957380D01*
X136413809Y-33957380D02*
X136413809Y-32957380D01*
X136318571Y-33100238D01*
X136223333Y-33195476D01*
X136128095Y-33243095D01*
%TO.C,C2*%
X121985833Y-55377142D02*
X121938214Y-55424761D01*
X121795357Y-55472380D01*
X121700119Y-55472380D01*
X121557261Y-55424761D01*
X121462023Y-55329523D01*
X121414404Y-55234285D01*
X121366785Y-55043809D01*
X121366785Y-54900952D01*
X121414404Y-54710476D01*
X121462023Y-54615238D01*
X121557261Y-54520000D01*
X121700119Y-54472380D01*
X121795357Y-54472380D01*
X121938214Y-54520000D01*
X121985833Y-54567619D01*
X122366785Y-54567619D02*
X122414404Y-54520000D01*
X122509642Y-54472380D01*
X122747738Y-54472380D01*
X122842976Y-54520000D01*
X122890595Y-54567619D01*
X122938214Y-54662857D01*
X122938214Y-54758095D01*
X122890595Y-54900952D01*
X122319166Y-55472380D01*
X122938214Y-55472380D01*
%TO.C,C5*%
X143007142Y-71519166D02*
X143054761Y-71566785D01*
X143102380Y-71709642D01*
X143102380Y-71804880D01*
X143054761Y-71947738D01*
X142959523Y-72042976D01*
X142864285Y-72090595D01*
X142673809Y-72138214D01*
X142530952Y-72138214D01*
X142340476Y-72090595D01*
X142245238Y-72042976D01*
X142150000Y-71947738D01*
X142102380Y-71804880D01*
X142102380Y-71709642D01*
X142150000Y-71566785D01*
X142197619Y-71519166D01*
X142102380Y-70614404D02*
X142102380Y-71090595D01*
X142578571Y-71138214D01*
X142530952Y-71090595D01*
X142483333Y-70995357D01*
X142483333Y-70757261D01*
X142530952Y-70662023D01*
X142578571Y-70614404D01*
X142673809Y-70566785D01*
X142911904Y-70566785D01*
X143007142Y-70614404D01*
X143054761Y-70662023D01*
X143102380Y-70757261D01*
X143102380Y-70995357D01*
X143054761Y-71090595D01*
X143007142Y-71138214D01*
%TO.C,J6*%
X140636666Y-60822380D02*
X140636666Y-61536666D01*
X140589047Y-61679523D01*
X140493809Y-61774761D01*
X140350952Y-61822380D01*
X140255714Y-61822380D01*
X141541428Y-60822380D02*
X141350952Y-60822380D01*
X141255714Y-60870000D01*
X141208095Y-60917619D01*
X141112857Y-61060476D01*
X141065238Y-61250952D01*
X141065238Y-61631904D01*
X141112857Y-61727142D01*
X141160476Y-61774761D01*
X141255714Y-61822380D01*
X141446190Y-61822380D01*
X141541428Y-61774761D01*
X141589047Y-61727142D01*
X141636666Y-61631904D01*
X141636666Y-61393809D01*
X141589047Y-61298571D01*
X141541428Y-61250952D01*
X141446190Y-61203333D01*
X141255714Y-61203333D01*
X141160476Y-61250952D01*
X141112857Y-61298571D01*
X141065238Y-61393809D01*
%TO.C,C1*%
X135387142Y-44849166D02*
X135434761Y-44896785D01*
X135482380Y-45039642D01*
X135482380Y-45134880D01*
X135434761Y-45277738D01*
X135339523Y-45372976D01*
X135244285Y-45420595D01*
X135053809Y-45468214D01*
X134910952Y-45468214D01*
X134720476Y-45420595D01*
X134625238Y-45372976D01*
X134530000Y-45277738D01*
X134482380Y-45134880D01*
X134482380Y-45039642D01*
X134530000Y-44896785D01*
X134577619Y-44849166D01*
X135482380Y-43896785D02*
X135482380Y-44468214D01*
X135482380Y-44182500D02*
X134482380Y-44182500D01*
X134625238Y-44277738D01*
X134720476Y-44372976D01*
X134768095Y-44468214D01*
%TO.C,J5*%
X128332380Y-69123333D02*
X129046666Y-69123333D01*
X129189523Y-69170952D01*
X129284761Y-69266190D01*
X129332380Y-69409047D01*
X129332380Y-69504285D01*
X128332380Y-68170952D02*
X128332380Y-68647142D01*
X128808571Y-68694761D01*
X128760952Y-68647142D01*
X128713333Y-68551904D01*
X128713333Y-68313809D01*
X128760952Y-68218571D01*
X128808571Y-68170952D01*
X128903809Y-68123333D01*
X129141904Y-68123333D01*
X129237142Y-68170952D01*
X129284761Y-68218571D01*
X129332380Y-68313809D01*
X129332380Y-68551904D01*
X129284761Y-68647142D01*
X129237142Y-68694761D01*
%TO.C,J1*%
X122896666Y-46352380D02*
X122896666Y-47066666D01*
X122849047Y-47209523D01*
X122753809Y-47304761D01*
X122610952Y-47352380D01*
X122515714Y-47352380D01*
X123896666Y-47352380D02*
X123325238Y-47352380D01*
X123610952Y-47352380D02*
X123610952Y-46352380D01*
X123515714Y-46495238D01*
X123420476Y-46590476D01*
X123325238Y-46638095D01*
%TO.C,R1*%
X131642380Y-49696666D02*
X131166190Y-50030000D01*
X131642380Y-50268095D02*
X130642380Y-50268095D01*
X130642380Y-49887142D01*
X130690000Y-49791904D01*
X130737619Y-49744285D01*
X130832857Y-49696666D01*
X130975714Y-49696666D01*
X131070952Y-49744285D01*
X131118571Y-49791904D01*
X131166190Y-49887142D01*
X131166190Y-50268095D01*
X131642380Y-48744285D02*
X131642380Y-49315714D01*
X131642380Y-49030000D02*
X130642380Y-49030000D01*
X130785238Y-49125238D01*
X130880476Y-49220476D01*
X130928095Y-49315714D01*
%TO.C,J2*%
X116506666Y-49392380D02*
X116506666Y-50106666D01*
X116459047Y-50249523D01*
X116363809Y-50344761D01*
X116220952Y-50392380D01*
X116125714Y-50392380D01*
X116935238Y-49487619D02*
X116982857Y-49440000D01*
X117078095Y-49392380D01*
X117316190Y-49392380D01*
X117411428Y-49440000D01*
X117459047Y-49487619D01*
X117506666Y-49582857D01*
X117506666Y-49678095D01*
X117459047Y-49820952D01*
X116887619Y-50392380D01*
X117506666Y-50392380D01*
%TO.C,C4*%
X144380833Y-45667142D02*
X144333214Y-45714761D01*
X144190357Y-45762380D01*
X144095119Y-45762380D01*
X143952261Y-45714761D01*
X143857023Y-45619523D01*
X143809404Y-45524285D01*
X143761785Y-45333809D01*
X143761785Y-45190952D01*
X143809404Y-45000476D01*
X143857023Y-44905238D01*
X143952261Y-44810000D01*
X144095119Y-44762380D01*
X144190357Y-44762380D01*
X144333214Y-44810000D01*
X144380833Y-44857619D01*
X145237976Y-45095714D02*
X145237976Y-45762380D01*
X144999880Y-44714761D02*
X144761785Y-45429047D01*
X145380833Y-45429047D01*
%TO.C,R2*%
X135453333Y-47062380D02*
X135120000Y-46586190D01*
X134881904Y-47062380D02*
X134881904Y-46062380D01*
X135262857Y-46062380D01*
X135358095Y-46110000D01*
X135405714Y-46157619D01*
X135453333Y-46252857D01*
X135453333Y-46395714D01*
X135405714Y-46490952D01*
X135358095Y-46538571D01*
X135262857Y-46586190D01*
X134881904Y-46586190D01*
X135834285Y-46157619D02*
X135881904Y-46110000D01*
X135977142Y-46062380D01*
X136215238Y-46062380D01*
X136310476Y-46110000D01*
X136358095Y-46157619D01*
X136405714Y-46252857D01*
X136405714Y-46348095D01*
X136358095Y-46490952D01*
X135786666Y-47062380D01*
X136405714Y-47062380D01*
D11*
%TO.C,R3*%
X140235000Y-50842936D02*
X140235000Y-51297064D01*
X141705000Y-50842936D02*
X141705000Y-51297064D01*
%TO.C,C3*%
X140435000Y-44421248D02*
X140435000Y-44943752D01*
X138965000Y-44421248D02*
X138965000Y-44943752D01*
%TO.C,R4*%
X132122936Y-60425000D02*
X132577064Y-60425000D01*
X132122936Y-58955000D02*
X132577064Y-58955000D01*
%TO.C,Q1*%
X131390000Y-56410000D02*
X131390000Y-52810000D01*
X131378478Y-52771522D02*
G75*
G03*
X126940000Y-54610000I-1838478J-1838478D01*
G01*
X126939999Y-54610000D02*
G75*
G03*
X131378478Y-56448478I2600001J0D01*
G01*
%TO.C,Q2*%
X142820000Y-58950000D02*
X142820000Y-55350000D01*
X142808478Y-55311522D02*
G75*
G03*
X138370000Y-57150000I-1838478J-1838478D01*
G01*
X138369999Y-57150000D02*
G75*
G03*
X142808478Y-58988478I2600001J0D01*
G01*
%TO.C,U1*%
X141010000Y-34505000D02*
X141010000Y-39146000D01*
X130770000Y-34505000D02*
X130770000Y-39146000D01*
X137741000Y-34505000D02*
X137741000Y-36015000D01*
X130770000Y-36015000D02*
X141010000Y-36015000D01*
X134040000Y-34505000D02*
X134040000Y-36015000D01*
X130770000Y-34505000D02*
X141010000Y-34505000D01*
X130770000Y-39146000D02*
X141010000Y-39146000D01*
%TO.C,C2*%
X122413752Y-52605000D02*
X121891248Y-52605000D01*
X122413752Y-54075000D02*
X121891248Y-54075000D01*
%TO.C,C5*%
X141705000Y-71091248D02*
X141705000Y-71613752D01*
X140235000Y-71091248D02*
X140235000Y-71613752D01*
%TO.C,C1*%
X134085000Y-44421248D02*
X134085000Y-44943752D01*
X132615000Y-44421248D02*
X132615000Y-44943752D01*
%TO.C,J1*%
X121957000Y-39617000D02*
X122004000Y-39571000D01*
X119660000Y-41915000D02*
X119695000Y-41879000D01*
X128530000Y-35740000D02*
X128030000Y-35740000D01*
X118170000Y-45901000D02*
X118170000Y-35980000D01*
X128290000Y-35980000D02*
X118170000Y-35980000D01*
X128290000Y-42941000D02*
X118170000Y-42941000D01*
X128290000Y-38040000D02*
X118170000Y-38040000D01*
X128290000Y-45901000D02*
X118170000Y-45901000D01*
X128290000Y-36540000D02*
X118170000Y-36540000D01*
X128290000Y-45901000D02*
X128290000Y-35980000D01*
X128530000Y-36480000D02*
X128530000Y-35740000D01*
X121764000Y-39401000D02*
X121799000Y-39366000D01*
X119455000Y-41709000D02*
X119502000Y-41663000D01*
X127265000Y-41324000D02*
G75*
G03*
X127265427Y-39956958I-1534993J684001D01*
G01*
X125730000Y-38960000D02*
G75*
G03*
X125046682Y-39105244I0J-1680000D01*
G01*
X125046000Y-42175000D02*
G75*
G03*
X126413042Y-42175427I684001J1534993D01*
G01*
X124194999Y-39956000D02*
G75*
G03*
X124194573Y-41323042I1535001J-684000D01*
G01*
X126414000Y-39105000D02*
G75*
G03*
X125701195Y-38959747I-683999J-1535001D01*
G01*
X122410000Y-40640000D02*
G75*
G03*
X122410000Y-40640000I-1680000J0D01*
G01*
%TO.C,R1*%
X128805000Y-49302936D02*
X128805000Y-49757064D01*
X130275000Y-49302936D02*
X130275000Y-49757064D01*
%TO.C,C4*%
X144286248Y-47725000D02*
X144808752Y-47725000D01*
X144286248Y-46255000D02*
X144808752Y-46255000D01*
%TO.C,R2*%
X135392936Y-47525000D02*
X135847064Y-47525000D01*
X135392936Y-48995000D02*
X135847064Y-48995000D01*
%TD*%
M02*
